<?xml version="1.0" encoding="UTF-8" standalone="no"?>
<!-- Generator: Adobe Illustrator 16.0.0, SVG Export Plug-In . SVG Version: 6.00 Build 0)  -->

<svg
   xmlns:dc="http://purl.org/dc/elements/1.1/"
   xmlns:cc="http://creativecommons.org/ns#"
   xmlns:rdf="http://www.w3.org/1999/02/22-rdf-syntax-ns#"
   xmlns:svg="http://www.w3.org/2000/svg"
   xmlns="http://www.w3.org/2000/svg"
   xmlns:sodipodi="http://sodipodi.sourceforge.net/DTD/sodipodi-0.dtd"
   xmlns:inkscape="http://www.inkscape.org/namespaces/inkscape"
   version="1.1"
   x="0px"
   y="0px"
   width="687.34229"
   height="687.34229"
   viewBox="0 0 687.34229 687.34229"
   enable-background="new 0 0 800 800"
   xml:space="preserve"
   id="svg2"
   inkscape:version="0.91 r13725"
   sodipodi:docname="librosa_logo.svg"><metadata
     id="metadata80"><rdf:RDF><cc:Work
         rdf:about=""><dc:format>image/svg+xml</dc:format><dc:type
           rdf:resource="http://purl.org/dc/dcmitype/StillImage" /><dc:title></dc:title></cc:Work></rdf:RDF></metadata><defs
     id="defs78" /><sodipodi:namedview
     pagecolor="#ffffff"
     bordercolor="#666666"
     borderopacity="1"
     objecttolerance="10"
     gridtolerance="10"
     guidetolerance="10"
     inkscape:pageopacity="0"
     inkscape:pageshadow="2"
     inkscape:window-width="1920"
     inkscape:window-height="1007"
     id="namedview76"
     showgrid="false"
     fit-margin-top="0"
     fit-margin-left="0"
     fit-margin-right="0"
     fit-margin-bottom="0"
     inkscape:snap-global="true"
     inkscape:zoom="0.834386"
     inkscape:cx="264.49333"
     inkscape:cy="396.68834"
     inkscape:window-x="0"
     inkscape:window-y="27"
     inkscape:window-maximized="1"
     inkscape:current-layer="svg2" /><g
     id="bg"
     style="fill:#e9a3c9;fill-opacity:1"
     transform="scale(0.85917789,0.85917789)"><path
       d="M 800,692.897 C 800,752.049 752.049,800 692.897,800 l -585.794,0 C 47.951,800 0,752.049 0,692.897 L 0,107.103 C 0,47.951 47.951,0 107.103,0 L 692.898,0 C 752.049,0 800,47.951 800,107.103 l 0,585.794 z"
       id="path5"
       style="fill:#e9a3c9;fill-opacity:1"
       inkscape:connector-curvature="0" /></g><path
     style="fill:#ffffff"
     d="m 311.92199,79.931632 c -20.633,0 -40.60491,2.93792 -59.50391,8.41992 35.474,3.094 67.33343,18.970248 90.98243,42.947248 33.935,31.432 59.4107,72.53372 72.9707,118.51172 19.8625,67.19112 13.04779,137.77667 -15.8418,197.32813 l 0.01,-0.0117 0.93164,-1.25391 1.0664,-1.42773 0.9961,-1.25391 0.99804,-1.33789 1.0625,-1.33789 0.9961,-1.25391 0.93359,-1.17382 1.06446,-1.42774 1.06835,-1.25586 0.92579,-1.16211 1.07031,-1.34765 1.07226,-1.25977 0.99805,-1.17383 1.00195,-1.17383 1.08008,-1.26562 1.08399,-1.18164 0.99218,-1.08399 1.09375,-1.1914 1,-1.00586 0.9961,-1.08594 1.20117,-1.20898 0.99609,-0.91992 1.11719,-1.125 1.11719,-0.93555 0.99219,-0.91602 1.12304,-0.9414 1.00196,-0.83985 1.13281,-0.94922 1.29492,-0.98046 1.16406,-0.77735 0.99414,-0.66797 0.99805,-0.66797 1.35742,-0.91015 1.18164,-0.59766 1.00391,-0.58789 1.41602,-0.71289 1.00195,-0.41992 1.2207,-0.61328 1.4629,-0.49219 1.00391,-0.33789 1.25975,-0.42188 1.25392,-0.31445 1.27148,-0.32227 1.27929,-0.21289 1.27344,-0.21289 1.28711,-0.10937 1.29492,-0.10742 1.28516,0 1.29101,0 1.29492,0.10742 1.28322,0.10937 1.27343,0.21289 1.2793,0.21289 1.27149,0.32227 1.25585,0.31445 1.25977,0.42188 1,0.33789 1.46484,0.49023 1.22266,0.61524 1.00391,0.41992 1.41797,0.71484 0.99803,0.58594 1.1836,0.5957 1.35742,0.91211 0.99414,0.66602 0.99806,0.66797 1.16405,0.7793 1.29687,0.98046 1.13477,0.95313 0.9922,0.83398 1.125,0.93946 1.00194,0.92382 1.11329,0.93555 1.11132,1.11719 0.19142,0.17773 c 25.94532,-35.44141 41.28515,-79.11109 41.28515,-126.29882 0,-118.156 -96.12978,-214.287098 -214.30078,-214.287098 z M 481.4884,100.77342 c -6.15449,-0.0105 -12.40763,0.15213 -18.75,0.48437 57.32,44.89 94.20117,114.70279 94.20117,192.9668 0,39.01299 -9.18056,75.92606 -25.47655,108.66406 28.905,-25.858 53.26104,-53.65347 71.87303,-82.35547 38.19601,-58.829 47.27751,-113.71725 25.5625,-154.53125 -13.75199,-25.835 -38.63009,-44.39946 -73.99609,-55.18946 -21.9505,-6.70881 -46.74459,-9.99341 -73.41405,-10.03906 z M 239.64465,118.4785 c -63.447,0 -115.0545,51.62154 -115.06249,115.06055 0,63.439 51.60768,115.05273 115.05468,115.05273 0.12299,0 0.23928,-0.0156 0.36329,-0.0156 -33.81001,-14.709 -57.52149,-48.435 -57.52149,-87.625 0,-52.656 42.85163,-95.50195 95.51563,-95.50195 27.957,0 53.13023,12.07472 70.61523,31.26171 -15.378,-45.424 -58.40084,-78.23242 -108.96484,-78.23242 z m 38.34961,77.70507 c -35.715,0 -64.78321,29.05158 -64.78321,64.76758 0,3.92501 0.36521,7.75842 1.03321,11.48242 8.747,-18.783 27.7926,-31.83594 49.8496,-31.83594 30.30401,0 54.95622,24.65204 54.94923,54.95703 0,6.22 -1.04112,12.19063 -2.95313,17.76563 16.162,-11.794 26.68946,-30.86514 26.68946,-52.36914 0,-35.716 -29.06115,-64.76758 -64.78515,-64.76758 z m 106.10351,56.65039 c -9.484,71.299 -70.61994,126.49806 -144.46094,126.49806 -67.303,0 -124.08029,-45.86971 -140.779285,-107.97071 -0.793,7.51 -1.22052,15.13628 -1.22852,22.86328 0,70.8974 34.618755,133.85816 87.833985,172.87891 l 0.78906,-0.92579 0.92187,-1.15819 1.06836,-1.34572 0.92578,-1.08592 0.92774,-1.2461 1.0664,-1.33984 0.99414,-1.25 0.92969,-1.17188 1,-1.34179 1,-1.25586 0.93164,-1.25 1.06055,-1.42188 0.99609,-1.2539 0.92969,-1.25 1.06055,-1.42774 1,-1.25781 0.93359,-1.25 1.0625,-1.42578 0.99805,-1.25391 0.99609,-1.33789 1.06446,-1.33789 0.99804,-1.25586 0.93164,-1.16992 1.0625,-1.42774 1.07032,-1.25781 0.92578,-1.16406 1.07031,-1.3457 1.07617,-1.26368 0.99805,-1.16992 0.99414,-1.16797 1.08008,-1.26757 1.08203,-1.1836 0.99804,-1.08789 1.09571,-1.19336 0.99805,-1.0039 0.99804,-1.08594 1.20313,-1.21094 0.99414,-0.91601 1.11133,-1.1211 1.11914,-0.9375 0.99609,-0.91797 1.12109,-0.9414 1,-0.83789 1.13477,-0.95313 1.29687,-0.97851 1.16016,-0.77735 0.99609,-0.66797 0.99805,-0.66992 1.35742,-0.9082 1.17969,-0.59571 1.00391,-0.59179 1.41992,-0.71289 0.99805,-0.41797 1.22461,-0.61525 1.46679,-0.49218 0.9961,-0.33399 1.25585,-0.42383 1.25977,-0.31445 1.27149,-0.32227 1.27929,-0.21289 1.27539,-0.21289 1.28516,-0.10937 1.29492,-0.10742 1.28906,0 1.28516,0 1.29687,0.10742 1.28321,0.10937 1.27344,0.21289 1.27734,0.21289 1.27344,0.32227 1.25781,0.31445 1.25781,0.42188 0.99805,0.33594 1.46875,0.49414 1.22461,0.61523 0.99219,0.41602 1.42382,0.71289 1.00196,0.58984 1.17773,0.59375 1.36133,0.91211 1,0.66992 0.99414,0.66797 1.16406,0.7793 1.29297,0.97851 1.13281,0.94922 0.99805,0.83789 1.12305,0.94141 0.99804,0.91992 1.11914,0.9375 1.11133,1.1211 0.9961,0.91796 1.20312,1.21289 0.99414,1.08399 1,1.00196 1.0918,1.19335 0.99609,1.084 1.08594,1.18358 1.08398,1.27148 0.9961,1.17188 0.99219,1.16602 1.07812,1.26172 1.07227,1.35157 0.92187,1.1582 1.06836,1.25586 1.06641,1.42969 0.93359,1.17381 0.99609,1.25392 1.06446,1.33983 0.99804,1.33986 0.99414,1.25195 1.06055,1.42188 0.9336,1.25195 1,1.25586 1.06445,1.42577 0.93164,1.25392 0.99609,1.2539 1.0586,1.42187 0.93359,1.25 1,1.25781 0.99414,1.33595 0.93164,1.16992 0.9961,1.2539 1.0664,1.33985 0.92774,1.24414 0.92578,1.08789 1.07226,1.34766 0.92188,1.16211 0.91797,1.07812 0.99804,1.16992 0.99805,1.16992 0.91992,1.07813 0.90625,0.99219 0.99414,1.08398 0.90625,0.98633 0.99414,1.00195 0.99805,1.08594 0.79297,0.79883 0.99805,0.92187 0.88086,0.88672 0.875,0.73438 1,0.91797 0.87304,0.73242 0.99805,0.83789 0.86133,0.72265 0.69531,0.5254 0.0937,0.0625 c 51.33007,-59.45819 70.06212,-144.46712 46.51953,-224.16993 -0.583,-1.998 -1.19775,-3.98984 -1.84375,-5.96484 z m -185.09375,196.97267 11.23047,8.35937 -1.06055,1.42774 -1,1.25585 -0.93358,1.25391 -1.06642,1.42774 -0.99608,1.25194 -0.99415,1.33595 -1.06445,1.33789 -0.99805,1.2578 -0.93164,1.16993 -1.06445,1.42969 -1.06836,1.2539 -0.92579,1.16602 -1.04882,1.31641 c 14.21369,9.05595 29.55678,16.49046 45.77343,22.02343 5.653,1.757 11.34271,3.42811 17.09571,5.03711 16.646,4.152 34.04384,6.39063 51.96484,6.39063 0.521,0 1.03288,-0.0156 1.54688,-0.0156 5.75883,-4.7916 11.23514,-9.85646 16.43359,-15.16015 l -1.12305,-0.94336 -0.99609,-0.83399 -1.12305,-0.9414 -0.99805,-0.91993 -1.11718,-0.9375 -1.11328,-1.12109 -0.9961,-0.91992 -1.20117,-1.20703 -1,-1.08985 -0.99608,-1.0039 -1.0918,-1.1875 -1,-1.09181 -1.08398,-1.18359 -1.07618,-1.26367 -0.99804,-1.16993 -0.99805,-1.17187 -1.07813,-1.26367 -1.07031,-1.34766 -0.92187,-1.16016 -1.06836,-1.25586 -1.06446,-1.42773 -0.92968,-1.16992 -0.99805,-1.25586 -1.06641,-1.33984 -1,-1.33985 -0.99414,-1.25195 -1.06446,-1.42578 -0.93358,-1.25391 -0.99805,-1.25586 -1.05859,-1.42383 -0.93164,-1.24804 -0.9961,-1.25196 -1.06446,-1.42577 -0.93554,-1.2539 -1,-1.25782 -0.99219,-1.33593 -0.93164,-1.16994 -0.99415,-1.25389 -1.0625,-1.33399 -0.92968,-1.24609 -0.92774,-1.08984 -1.07226,-1.34961 -0.91993,-1.15821 -0.92187,-1.08007 -1,-1.17579 -0.99414,-1.16796 -0.91211,-1.07227 -0.91016,-0.99023 -1,-1.08985 -0.90039,-0.98242 -1,-1.00195 -1,-1.09375 -0.78906,-0.79297 -1,-0.92188 -0.87695,-0.88672 -0.87696,-0.73437 -0.99804,-0.91992 -0.87305,-0.73047 -0.99805,-0.83594 -0.86328,-0.72461 -0.69726,-0.52734 -0.83204,-0.55664 -0.99804,-0.66992 -0.99414,-0.66797 -0.63672,-0.42578 -0.81446,-0.41016 -0.99218,-0.58399 -0.57617,-0.28906 -1.00196,-0.41992 -0.76758,-0.38672 -0.52734,-0.17578 -0.99805,-0.33594 -0.73046,-0.24609 -0.73829,-0.18555 -0.72461,-0.18164 -0.71679,-0.11914 -0.72266,-0.12109 -0.70508,-0.0605 -0.70117,-0.0586 -0.70508,0 -0.70898,0 -0.70117,0.0586 -0.70703,0.0605 -0.72266,0.12109 -0.7168,0.11914 -0.72461,0.18164 -0.73437,0.18555 -0.73047,0.24414 -1,0.33789 -0.5293,0.17774 -0.76953,0.38671 -1,0.41797 -0.57422,0.28906 -0.99414,0.58204 -0.80859,0.41015 -0.64063,0.42774 -0.99414,0.66797 -0.99804,0.66992 -0.83594,0.56054 -0.69922,0.5254 -0.85742,0.7207 -0.99805,0.83594 -0.86914,0.73046 -1,0.92188 -0.87695,0.73437 -0.87891,0.88672 -1.00195,0.92383 -0.79102,0.79492 -1,1.08985 -0.99609,1.00195 -0.90235,0.98242 -0.99609,1.08594 -0.9082,0.99219 -0.91407,1.07422 -0.99804,1.17187 -1,1.17188 -0.91797,1.07812 -0.92578,1.16406 -1.07031,1.34571 -0.92383,1.08593 -0.92969,1.2461 -1.06641,1.33984 -0.99218,1.25195 -0.93164,1.17188 -0.99805,1.33789 -0.99805,1.25586 -0.93359,1.25 -1.0625,1.42578 -0.9961,1.25195 -0.92773,1.2461 -11.23047,-8.35742 z m 65.08984,-178.47852 c -13.365,0 -24.24023,10.87056 -24.24023,24.22656 0,13.372 10.87523,24.24804 24.24023,24.24804 13.35601,0 24.22461,-10.88504 24.22461,-24.24804 0,-13.35701 -10.86861,-24.22656 -24.22461,-24.22656 z M 67.916135,316.29686 c -17.376,24.488 -30.227969,49.39008 -37.667969,73.74608 -3.237382,10.60864 -5.358042,20.82554 -6.382813,30.63282 l 0.363282,-0.33594 1.115234,-1.11914 1.115234,-0.93555 0.998047,-0.91992 1.119141,-0.9375 0.998047,-0.83789 1.136718,-0.95313 1.292969,-0.97656 1.164063,-0.78125 0.998047,-0.66797 0.996093,-0.66797 1.361328,-0.91211 1.183594,-0.5957 0.994141,-0.58398 1.421873,-0.7168 0.99805,-0.41602 1.2207,-0.61523 1.470711,-0.49414 1,-0.33594 1.26171,-0.42383 1.25782,-0.31445 1.26757,-0.32031 1.27735,-0.21289 1.27539,-0.21289 1.28711,-0.11133 1.29687,-0.10547 1.28516,0 1.28516,0 1.29492,0.10547 1.29101,0.11133 1.27344,0.21289 1.27734,0.21289 1.27344,0.32226 1.25195,0.31446 1.25782,0.41992 1.0039,0.33789 1.4668,0.49414 1.2207,0.61328 1,0.41797 1.42188,0.7168 0.99609,0.58593 1.1836,0.59571 1.35742,0.91015 0.99414,0.66797 1.00195,0.66992 1.1582,0.77735 1.29493,0.97656 1.14257,0.95508 0.99415,0.83789 1.125,0.94141 0.99414,0.91992 1.11328,0.93164 1.11328,1.12109 0.99609,0.91797 1.20508,1.21094 1,1.09179 0.99609,1.00196 1.0918,1.1914 0.99805,1.0879 1.08203,1.18164 1.08008,1.26562 0.99609,1.16992 1,1.16992 1.07617,1.26368 1.07422,1.35156 0.91992,1.16017 1.070325,1.25585 1.06444,1.43165 0.92578,1.16406 1,1.25585 1.06641,1.33984 0.99804,1.33984 1,1.25782 1.05861,1.42382 0.93163,1.24805 0.99805,1.25586 1.06055,1.42383 0.9336,1.25 0.99609,1.25391 1.06641,1.42773 0.93164,1.25195 0.99804,1.25586 0.9961,1.33789 0.93164,1.17188 0.99413,1.25391 1.0625,1.33398 0.92773,1.24414 0.92774,1.0879 1.07031,1.34766 0.92384,1.16015 0.92187,1.08203 1.00196,1.17578 0.99414,1.16993 0.91014,1.06836 0.91016,0.99218 1,1.08789 0.90039,0.98243 0.99805,1.00195 1.00195,1.09375 0.78906,0.79687 0.99805,0.91993 0.87891,0.88476 0.87695,0.73633 0.99609,0.91602 0.875,0.73242 0.99805,0.83789 0.86328,0.72461 0.69531,0.52539 0.83399,0.56055 0.99609,0.66796 0.99609,0.66797 0.63672,0.42578 0.80861,0.40821 0.99804,0.58593 0.57618,0.28907 1.00194,0.41797 0.76953,0.38867 0.51954,0.17383 0.9961,0.33398 0.74414,0.25 0.73437,0.18555 0.71875,0.18164 0.72266,0.11914 0.71679,0.12109 0.70703,0.0586 0.70704,0.0605 0.70507,0 0.69922,0 0.70899,-0.0605 0.70898,-0.0586 0.71485,-0.12109 0.72265,-0.11914 0.71875,-0.18164 0.73242,-0.18555 0.74219,-0.24805 1,-0.33593 0.01,-0.004 C 109.44009,446.88219 74.144455,385.72033 67.916135,316.29686 Z m 573.289055,0.87695 c -3.677,6.694 -7.70439,13.38185 -12.0664,20.08985 -27.73442,42.69087 -67.11637,83.45489 -114.60157,119.21679 l 0.81836,1.09571 0.93164,1.17187 0.9961,1.25586 1.06054,1.33399 0.92774,1.24218 0.92969,1.08985 1.07422,1.35155 0.91992,1.16017 0.91797,1.07617 0.99804,1.17187 1,1.16992 0.91602,1.07813 0.91016,0.99219 0.99414,1.08593 0.90039,0.98047 0.99804,1.00196 1.00196,1.09179 0.79101,0.79883 0.9961,0.91992 0.88281,0.88672 0.87305,0.73438 1,0.91797 0.87304,0.73437 0.99805,0.83594 0.85937,0.7207 0.69922,0.5293 0.83008,0.55664 0.99609,0.66797 1.00391,0.67187 0.63672,0.42774 0.80664,0.40625 0.99414,0.58398 0.57617,0.28905 0.99805,0.41994 0.76953,0.38476 0.52734,0.17774 0.9961,0.33398 0.73437,0.24608 0.73828,0.18556 0.72852,0.18359 0.7168,0.12109 0.71679,0.11914 0.70899,0.0606 0.70312,0.0586 0.70313,0 0.70312,0 0.70508,-0.0586 0.71094,-0.0606 0.71484,-0.11914 0.71485,-0.11914 0.72461,-0.18555 0.74414,-0.18555 0.73632,-0.24609 0.99219,-0.33398 0.52735,-0.17579 0.76953,-0.38671 0.99609,-0.41797 0.58203,-0.29297 0.99219,-0.58203 0.80469,-0.40625 0.64258,-0.42969 0.99804,-0.66797 0.99414,-0.66797 0.83203,-0.55859 0.70118,-0.53125 0.86328,-0.72266 0.99023,-0.83008 0.875,-0.73437 1.00391,-0.92188 0.87304,-0.73437 0.88086,-0.88477 0.99805,-0.92187 0.78906,-0.79688 1.00196,-1.08984 0.99414,-1 0.90039,-0.98242 1,-1.0918 0.91211,-0.99219 0.91406,-1.07422 0.99609,-1.16796 0.9961,-1.16993 0.92187,-1.08203 0.92383,-1.16211 1.06836,-1.34375 0.92578,-1.08984 0.92969,-1.24609 1.06445,-1.33594 0.99414,-1.25196 0.93164,-1.17187 0.99805,-1.33984 0.99805,-1.25391 0.084,-0.11133 -0.0664,-0.0508 c 8.65133,-11.40252 17.15056,-25.0572 30.55274,-34.94336 10.98687,-8.10486 23.58437,-9.69833 35.4043,-6.33594 0.6595,-2.23682 1.2471,-4.49524 1.74414,-6.7832 6.173,-28.484 -0.71621,-58.61894 -20.53321,-89.58594 z m -187.95116,101.9961 -0.70313,0.0586 -0.70704,0.0605 -0.7207,0.12109 -0.7168,0.11914 -0.72265,0.18164 -0.74023,0.18555 -0.73632,0.24609 -0.99219,0.33399 -0.52734,0.17773 -0.77149,0.38867 -0.99805,0.41797 -0.57617,0.28906 -0.99609,0.58399 -0.80664,0.4082 -0.63867,0.42774 -0.99805,0.66992 -0.99805,0.66797 -0.83398,0.55859 -0.69727,0.52735 -0.86133,0.72265 -0.99609,0.83399 -0.86719,0.72851 -1.0039,0.92578 -0.88086,0.73633 -0.87696,0.88281 -0.99609,0.91993 -0.79102,0.79687 -1,1.0918 -0.99609,1 -0.90039,0.98242 -1,1.0918 -0.91211,0.99218 -0.91601,1.07422 -0.9961,1.16602 -0.99219,1.16992 -0.92382,1.08203 -0.92383,1.16406 -1.07032,1.34375 -0.92382,1.08789 -0.93164,1.24805 -1.0625,1.33594 -0.99414,1.2539 -0.93164,1.17188 -0.9961,1.33789 -1.00195,1.25781 -0.92969,1.2461 -1.05859,1.42187 -1.00196,1.26172 -0.9375,1.25391 -0.008,-0.006 -1.05859,1.42187 -0.99805,1.25781 -0.93555,1.25196 -1.05859,1.42187 -0.99805,1.25782 -1,1.33789 -1.0625,1.33593 -0.99609,1.25782 -0.93555,1.17382 -1.06445,1.42578 -1.06445,1.25391 -0.92774,1.16602 -1.07031,1.3457 -1.07227,1.25977 -1,1.17382 -0.99804,1.16993 -1.07813,1.26562 -1.08594,1.18555 -0.99609,1.08398 -1.08789,1.19141 -1.00586,1.00976 -0.99414,1.08008 -1.19727,1.20899 -1.00195,0.92382 -1.11523,1.1211 -1.11524,0.9375 -0.99804,0.91601 -1.11915,0.94141 -1,0.83984 -1.13476,0.94922 -1.29492,0.97852 -1.16016,0.77734 -0.99805,0.67188 -0.99804,0.66797 -1.35547,0.9082 -1.18164,0.59765 -1.00977,0.5918 -1.41406,0.70899 -0.99609,0.41797 -1.22461,0.61523 -0.81641,0.27539 c -0.36392,0.43581 -0.72292,0.87508 -1.08984,1.30859 44.1556,-11.28394 82.8633,-36.33011 111.2832,-70.27148 l -0.23828,-0.24023 -0.9961,-0.91602 -0.88476,-0.89063 -0.87695,-0.73828 -0.99219,-0.91406 -0.875,-0.73242 -1.00195,-0.83985 -0.85743,-0.7207 -0.69531,-0.52539 -0.83203,-0.55859 -0.99805,-0.66797 -1.0039,-0.67188 -0.63477,-0.42578 -0.80859,-0.4082 -0.99805,-0.58594 -0.57226,-0.28906 -0.99415,-0.41602 -0.77343,-0.38671 -0.5293,-0.17774 -0.99609,-0.33594 -0.73243,-0.24609 -0.74023,-0.18555 -0.72461,-0.18164 -0.71484,-0.11914 -0.72266,-0.12109 -0.70508,-0.0605 -0.70117,-0.0586 -0.70898,0 -0.70313,0 z m -398.943365,0.002 -0.70117,0.0566 -0.70313,0.0605 -0.72265,0.12109 -0.71289,0.11914 -0.72656,0.1836 -0.74219,0.18554 -0.73242,0.2461 -0.9961,0.33398 -0.52539,0.17774 -0.77148,0.38867 -1,0.41601 -0.57032,0.28906 -1,0.58594 -0.812501,0.41016 -0.63476,0.42578 -1,0.66992 -1,0.66797 -0.83008,0.55859 -0.69726,0.5254 -0.859379,0.7207 -0.994141,0.83594 -0.876953,0.73437 -0.998047,0.91992 -0.880859,0.73828 -0.882813,0.88672 -0.99414,0.91797 -0.789063,0.79492 -1,1.08789 -0.996094,1.00196 -0.902343,0.98633 -1,1.08984 -0.91211,0.99023 -0.916016,1.07617 -0.996093,1.16797 -0.994141,1.16797 -0.923828,1.08203 -0.101562,0.12696 c 0.990043,14.54995 4.752521,28.02205 11.296874,40.32031 21.720999,40.8 72.318364,63.92195 142.443364,65.12695 30.00099,0.482 61.9296,-3.05579 94.6836,-10.34179 -6.693,-1.64 -13.34904,-3.40291 -19.95704,-5.25391 -5.435,-1.353 -10.79893,-2.93106 -16.08593,-4.66406 -3.98001,-1.214 -7.95272,-2.45805 -11.88673,-3.74805 l 0.14062,-0.44336 c -17.70445,-6.82185 -34.4189,-15.64889 -49.87304,-26.19141 l -0.92383,0.61915 -1.1836,0.5957 -1,0.58789 -1.42187,0.71484 -0.99805,0.41602 -1.2207,0.61523 -1.47266,0.4961 -0.99804,0.33203 -1.24414,0.41992 -1.26368,0.31836 -1.27929,0.32226 -1.26953,0.21094 -1.28125,0.21485 -1.28711,0.10742 -1.28907,0.10937 -1.28711,0 -1.29492,0 -1.28711,-0.10937 -1.2832,-0.10742 -1.28125,-0.21485 -1.27148,-0.21094 -1.2793,-0.32226 -1.25977,-0.31836 -1.24804,-0.41797 -0.99805,-0.33398 -1.47656,-0.4961 -1.22071,-0.61523 -0.99414,-0.41602 -1.41797,-0.71484 -1.00195,-0.58594 -1.18359,-0.59765 -1.35938,-0.91016 -1.00195,-0.67188 -0.99609,-0.66796 -1.16016,-0.7793 -1.29492,-0.98047 -1.13281,-0.94922 -0.9961,-0.83398 -1.12109,-0.93946 -1.00196,-0.92187 -1.11718,-0.9375 -1.11133,-1.1211 -1,-0.92187 -1.19922,-1.20899 -0.99414,-1.08398 -1,-1.00391 -1.09375,-1.19335 -0.99414,-1.08204 -1.08789,-1.18554 -1.08399,-1.27344 -0.99609,-1.16992 -0.99219,-1.16797 -1.07226,-1.25781 -1.07227,-1.34766 -0.92578,-1.16211 -1.06836,-1.25391 -1.06836,-1.43164 -0.93359,-1.17382 -0.9961,-1.25586 -1.0625,-1.33789 -0.99804,-1.33985 -0.99414,-1.25195 -1.0625,-1.42383 -0.9336,-1.25195 -0.99804,-1.25391 -1.064455,-1.42773 -0.92969,-1.25 -0.99609,-1.25196 -1.06641,-1.42968 -0.93164,-1.25196 -0.99609,-1.25195 -0.99609,-1.33594 -0.92969,-1.16797 -0.99609,-1.2539 -1.07032,-1.34375 -0.92578,-1.2461 -0.92578,-1.08593 -1.07031,-1.34961 -0.91992,-1.15821 -0.91993,-1.07812 -0.99804,-1.17188 -0.99805,-1.16992 -0.91601,-1.07617 -0.91016,-0.99219 -0.9961,-1.08593 -0.90429,-0.98633 -0.9961,-1.00196 -0.99609,-1.08593 -0.79102,-0.79493 -0.99804,-0.92187 -0.88086,-0.88477 -0.88672,-0.74218 -0.99414,-0.91993 -0.87109,-0.73046 -0.9961,-0.8379 -0.85351,-0.71484 -0.70118,-0.52734 -0.83593,-0.56055 -0.9961,-0.66797 -1.00195,-0.67187 -0.63672,-0.42774 -0.80859,-0.40625 -0.99805,-0.58594 -0.57031,-0.28906 -0.9961,-0.41601 -0.77539,-0.38867 -0.52734,-0.17774 -0.99219,-0.33398 -0.73828,-0.24805 -0.73633,-0.18555 -0.72461,-0.18164 -0.71484,-0.11914 -0.7207,-0.12109 -0.70508,-0.0586 -0.70117,-0.0586 -0.71094,0 -0.71094,0 z m 594.857425,6.23438 c -5.41453,-0.15995 -10.73983,1.66248 -16.26757,5.74023 -9.05646,6.68052 -16.2351,16.71266 -23.81056,26.96289 l 0.0781,0.0586 -1.06054,1.42383 -0.99805,1.25781 -0.93555,1.25196 -1.06054,1.42383 -0.99805,1.25586 -0.99805,1.33789 -1.0625,1.33593 -0.99804,1.25977 -0.93359,1.17187 -1.06445,1.42578 -1.06641,1.25391 -0.92383,1.16406 -1.07226,1.34766 -1.07227,1.25977 -0.99804,1.17187 -0.99805,1.17188 -1.08203,1.26757 -1.08399,1.1836 -0.99609,1.08398 -1.08984,1.19141 -1.00196,1.00781 -0.99414,1.08203 -1.20118,1.21094 -0.99805,0.91992 -1.11523,1.12305 -1.11914,0.93945 -0.99609,0.91406 -1.11719,0.93946 -1.00391,0.84179 -1.13281,0.94922 -1.29297,0.97656 -1.16016,0.7793 -1.00195,0.67188 -0.99805,0.66797 -1.35156,0.9082 -0.94921,0.47851 c 12.38327,-5.21607 23.86757,-11.16876 34.2793,-17.86328 23.72755,-15.24633 40.36139,-33.20943 49.67187,-53.57617 -2.03038,-0.58175 -4.034,-0.91383 -6.02539,-0.97265 z m -250.14454,24.7929 c -0.002,0.004 -0.004,0.009 -0.006,0.0137 l 8.95702,6.67382 -8.95117,-6.6875 z m 104.23243,14.57033 c -22.64393,16.24481 -46.96807,31.36362 -72.64257,45.03125 -9.577,5.076 -19.2253,9.91179 -28.9043,14.46678 59.20579,1.99862 114.23626,-5.6164 158.86328,-22.22461 l -0.45508,0.11524 -1.2832,0.21289 -1.2793,0.21484 -1.2832,0.10743 -1.29102,0.10937 -1.29101,0 -1.29102,0 -1.29101,-0.10937 -1.28125,-0.10743 -1.2793,-0.21484 -1.27931,-0.21289 -1.26953,-0.3203 -1.25586,-0.31447 -1.2578,-0.42187 -1,-0.33594 -1.46484,-0.49219 -1.22657,-0.61718 -1.00195,-0.41993 -1.41211,-0.70898 -1.00195,-0.58789 -1.18945,-0.59961 -1.35352,-0.91016 -0.99219,-0.66406 -1.00195,-0.67187 -1.16211,-0.7793 -1.29883,-0.98047 -1.13086,-0.95117 -0.99804,-0.83594 -1.11915,-0.93945 -1,-0.91993 -1.11718,-0.9375 -1.11328,-1.12109 -0.99805,-0.92187 -1.19922,-1.20899 -0.99414,-1.08203 -1,-1.00391 -1.0957,-1.19335 -0.99805,-1.08985 -1.08399,-1.18359 -1.07617,-1.26367 -0.99804,-1.16993 -0.9961,-1.16992 -1.08008,-1.26562 -1.07031,-1.34961 -0.91992,-1.15625 -1.06641,-1.25196 -1.07031,-1.43164 -0.93359,-1.17578 -0.9961,-1.2539 -1.06445,-1.33789 -0.99805,-1.3418 -0.006,-0.008 z"
     id="path8"
     inkscape:connector-curvature="0" /><g
     id="bits"
     display="none"
     style="display:none"
     transform="translate(-56.328845,-56.328845)"><text
       transform="translate(108.3638,168.1699)"
       display="inline"
       id="text11"
       style="display:inline"><tspan
         x="0"
         y="0"
         font-size="42"
         id="tspan13"
         style="font-size:42px;font-family:Courier-Bold;fill:#fd6acb">010100110010110101100111</tspan><tspan
         x="0"
         y="50.400002"
         font-size="42"
         id="tspan15"
         style="font-size:42px;font-family:Courier-Bold;fill:#fd6acb">110011100110011011100010</tspan><tspan
         x="0"
         y="100.8"
         font-size="42"
         id="tspan17"
         style="font-size:42px;font-family:Courier-Bold;fill:#fd6acb">110 11001 1010 10110 110</tspan><tspan
         x="0"
         y="151.2"
         font-size="42"
         id="tspan19"
         style="font-size:42px;font-family:Courier-Bold;fill:#fd6acb">01  1 1 0 0110 01 10 10 </tspan><tspan
         x="0"
         y="201.60001"
         font-size="42"
         id="tspan21"
         style="font-size:42px;font-family:Courier-Bold;fill:#fd6acb"> 0  0 0 1  0   1     0</tspan><tspan
         x="0"
         y="252"
         font-size="42"
         id="tspan23"
         style="font-size:42px;font-family:Courier-Bold;fill:#fd6acb"> 1  0   0      0     1</tspan><tspan
         x="0"
         y="302.39999"
         font-size="42"
         id="tspan25"
         style="font-size:42px;font-family:Courier-Bold;fill:#fd6acb"> 0  1   1      1     </tspan><tspan
         x="0"
         y="352.79999"
         font-size="42"
         id="tspan27"
         style="font-size:42px;font-family:Courier-Bold;fill:#fd6acb"> 1      0      0     </tspan><tspan
         x="0"
         y="403.20001"
         font-size="42"
         id="tspan29"
         style="font-size:42px;font-family:Courier-Bold;fill:#fd6acb">        1</tspan></text>
</g><g
     id="librosa"
     transform="translate(-58.099349,-92.328845)"><text
       transform="translate(200.3682,745.2607)"
       font-size="100"
       id="text32"
       style="font-size:100px;font-family:Courier-Bold;fill:#ffffff"
       x="201.58281"
       y="0"><tspan
         style="font-style:normal;font-variant:normal;font-weight:normal;font-stretch:normal;font-family:'Source Code Pro';-inkscape-font-specification:'Source Code Pro';text-align:center;text-anchor:middle"
         id="tspan3408">librosa</tspan></text>
</g><g
     id="wave"
     display="none"
     style="display:none"
     transform="translate(-56.328845,-56.328845)"><line
       display="inline"
       x1="985.45801"
       y1="-311.88101"
       x2="961.45599"
       y2="33.153"
       id="line35"
       style="display:inline;fill:none" /><line
       display="inline"
       x1="1048.465"
       y1="-311.88101"
       x2="1048.465"
       y2="33.153"
       id="line37"
       style="display:inline;fill:#ffffff" /><g
       display="inline"
       id="g39"
       style="display:inline"><rect
         x="101.297"
         y="179.08"
         width="30.003"
         height="42"
         id="rect41"
         style="fill:#fd6acb" /><rect
         x="156.211"
         y="142.85899"
         width="30.002001"
         height="111.221"
         id="rect43"
         style="fill:#fd6acb" /><rect
         x="207.30901"
         y="114.08"
         width="30.002001"
         height="158"
         id="rect45"
         style="fill:#fd6acb" /><rect
         x="256.31201"
         y="65.080002"
         width="30.003"
         height="253"
         id="rect47"
         style="fill:#fd6acb" /><rect
         x="311.22601"
         y="124.08"
         width="30.002001"
         height="134"
         id="rect49"
         style="fill:#fd6acb" /><rect
         x="362.323"
         y="65.080002"
         width="30.002001"
         height="253"
         id="rect51"
         style="fill:#fd6acb" /><rect
         x="416.46399"
         y="38.195"
         width="30.003"
         height="299.98499"
         id="rect53"
         style="fill:#fd6acb" /><rect
         x="471.37799"
         y="77.193001"
         width="30.002001"
         height="230.98801"
         id="rect55"
         style="fill:#fd6acb" /><rect
         x="522.47601"
         y="124.08"
         width="30.002001"
         height="134"
         id="rect57"
         style="fill:#fd6acb" /><rect
         x="571.479"
         y="137.47"
         width="30.003"
         height="111.221"
         id="rect59"
         style="fill:#fd6acb" /><rect
         x="626.39301"
         y="165.08"
         width="30.002001"
         height="63.521"
         id="rect61"
         style="fill:#fd6acb" /><rect
         x="677.48999"
         y="179.07899"
         width="30.002001"
         height="42.000999"
         id="rect63"
         style="fill:#fd6acb" /></g></g></svg>