<?xml version="1.0" encoding="UTF-8" standalone="no"?>
<!-- Created with Inkscape (http://www.inkscape.org/) -->

<svg
   xmlns:dc="http://purl.org/dc/elements/1.1/"
   xmlns:cc="http://creativecommons.org/ns#"
   xmlns:rdf="http://www.w3.org/1999/02/22-rdf-syntax-ns#"
   xmlns:svg="http://www.w3.org/2000/svg"
   xmlns="http://www.w3.org/2000/svg"
   xmlns:sodipodi="http://sodipodi.sourceforge.net/DTD/sodipodi-0.dtd"
   xmlns:inkscape="http://www.inkscape.org/namespaces/inkscape"
   width="148.94682mm"
   height="63.951202mm"
   viewBox="0 0 148.94683 63.951203"
   version="1.1"
   id="svg60"
   inkscape:version="0.92.3 (2405546, 2018-03-11)"
   sodipodi:docname="librosa_logo_text.svg"
   inkscape:export-filename="/home/bmcfee/git/librosa_media/logo/librosa_logo_simpler-text-rotated.png"
   inkscape:export-xdpi="90.130859"
   inkscape:export-ydpi="90.130859">
  <defs
     id="defs54">
    <inkscape:path-effect
       effect="copy_rotate"
       starting_point="75.8296,238.24069"
       origin="61.321447,237.22618"
       id="path-effect846"
       is_visible="true"
       copies_to_360="true"
       fuse_paths="false"
       starting_angle="-4.0000044"
       rotation_angle="60"
       num_copies="6" />
    <inkscape:path-effect
       effect="copy_rotate"
       starting_point="75.079604,237.22618"
       origin="61.321447,237.22618"
       id="path-effect844"
       is_visible="true"
       copies_to_360="true"
       fuse_paths="false"
       starting_angle="0"
       rotation_angle="60"
       num_copies="6" />
    <inkscape:path-effect
       effect="powerstroke"
       id="path-effect840"
       is_visible="true"
       offset_points="31,0.33051223"
       sort_points="true"
       interpolator_type="CubicBezierFit"
       interpolator_beta="0.2"
       start_linecap_type="butt"
       linejoin_type="extrp_arc"
       miter_limit="4"
       end_linecap_type="butt" />
    <inkscape:path-effect
       effect="copy_rotate"
       starting_point="67.13018,237.14366"
       origin="60.938111,237.13401"
       id="path-effect836"
       is_visible="true"
       copies_to_360="true"
       fuse_paths="false"
       starting_angle="-0.089292258"
       rotation_angle="51.428571"
       num_copies="7" />
  </defs>
  <sodipodi:namedview
     id="base"
     pagecolor="#ffffff"
     bordercolor="#666666"
     borderopacity="1.0"
     inkscape:pageopacity="0.0"
     inkscape:pageshadow="2"
     inkscape:zoom="1.979899"
     inkscape:cx="204.32578"
     inkscape:cy="157.34507"
     inkscape:document-units="mm"
     inkscape:current-layer="layer1"
     showgrid="false"
     inkscape:pagecheckerboard="true"
     showguides="false"
     inkscape:guide-bbox="true"
     inkscape:snap-object-midpoints="true"
     fit-margin-top="0"
     fit-margin-left="0"
     fit-margin-right="0"
     fit-margin-bottom="0"
     inkscape:window-width="1920"
     inkscape:window-height="1053"
     inkscape:window-x="0"
     inkscape:window-y="27"
     inkscape:window-maximized="1">
    <inkscape:grid
       type="axonomgrid"
       id="grid62"
       units="mm"
       empspacing="3"
       spacingy="1"
       gridanglex="30"
       gridanglez="30"
       originx="-30.289458"
       originy="-27.573964" />
    <sodipodi:guide
       position="30.332322,32.426039"
       orientation="0,1"
       id="guide68"
       inkscape:locked="false" />
    <sodipodi:guide
       position="29.466296,32.426039"
       orientation="1,0"
       id="guide149"
       inkscape:locked="false" />
  </sodipodi:namedview>
  <metadata
     id="metadata57">
    <rdf:RDF>
      <cc:Work
         rdf:about="">
        <dc:format>image/svg+xml</dc:format>
        <dc:type
           rdf:resource="http://purl.org/dc/dcmitype/StillImage" />
        <dc:title></dc:title>
      </cc:Work>
    </rdf:RDF>
  </metadata>
  <g
     inkscape:label="Layer 1"
     inkscape:groupmode="layer"
     id="layer1"
     transform="translate(-30.289457,-205.47485)">
    <text
       xml:space="preserve"
       style="font-style:normal;font-variant:normal;font-weight:normal;font-stretch:normal;font-size:31.75px;line-height:1.25;font-family:Quicksand;-inkscape-font-specification:Quicksand;letter-spacing:0px;word-spacing:0px;fill:#4d02a2;fill-opacity:1;stroke:none;stroke-width:0.26458332"
       x="181.56172"
       y="248.93089"
       id="text832"><tspan
         sodipodi:role="line"
         id="tspan830"
         x="179.97421"
         y="248.93089"
         style="font-style:normal;font-variant:normal;font-weight:normal;font-stretch:normal;font-size:31.75px;font-family:'Nova Slim';-inkscape-font-specification:'Nova Slim';text-align:end;letter-spacing:-1.58749998px;text-anchor:end;fill:#4d02a2;stroke-width:0.26458332"
         dx="0">lib<tspan
   style="font-style:normal;font-variant:normal;font-weight:normal;font-stretch:normal;font-family:'Nova Slim';-inkscape-font-specification:'Nova Slim';text-align:end;letter-spacing:-1.58749998px;text-anchor:end;fill:#aa2396;stroke-width:0.26458332"
   id="tspan834">rosa</tspan></tspan></text>
    <g
       id="g1489"
       transform="translate(-22.584275,-28.998744)">
      <path
         inkscape:connector-curvature="0"
         id="path133"
         d="m 101.87186,244.6914 c -1.3045,-2.4359 -3.416047,-5.50925 -4.922368,-7.18569 -1.325642,-1.46469 -2.375823,-2.25605 -3.516508,-2.67732 -1.421927,-0.5244 -2.467817,-0.48415 -6.516008,0.23239 -1.909095,0.3446 -3.820205,0.63692 -4.250743,0.65657 -0.784431,0.0302 -2.426274,-0.20541 -3.671067,-0.53025 -0.616304,-0.16419 -0.6686,-0.16217 -1.130713,0.1575 -0.453504,0.30397 -0.548491,0.47707 -1.171571,2.37721 -0.78113,2.35602 -1.840913,4.43626 -3.224042,6.3595 -1.634061,2.28719 -1.74479,2.45165 -1.68185,2.4862 0.09816,0.0636 1.578855,-1.16061 2.421925,-1.9879 1.59067,-1.57386 3.045965,-3.70321 3.997123,-5.88402 l 0.598012,-1.3508 0.499503,0.17183 c 2.469775,0.8536 6.01049,0.80063 9.14235,-0.11169 1.657313,-0.48279 3.242471,-0.75947 3.926334,-0.68106 1.027547,0.12373 2.827981,1.35755 4.5597,3.12698 0.811546,0.83445 2.676133,3.01464 4.467613,5.21616 1.13171,1.38896 1.28246,1.54336 1.15822,1.11683 -0.0782,-0.26809 -0.39367,-0.94294 -0.68593,-1.49239 z m -27.42554,-3.98684 c -2.76181,-0.0882 -6.47919,0.20375 -8.684187,0.67004 -1.931271,0.41571 -3.141708,0.92951 -4.076881,1.70673 -1.165107,0.96922 -1.653191,1.89511 -3.056745,5.75923 -0.656122,1.82562 -1.358517,3.62684 -1.556766,4.00953 -0.366061,0.69443 -1.391034,1.9985 -2.294748,2.91411 -0.450346,0.45164 -0.474772,0.49791 -0.428949,1.05798 0.03648,0.54473 0.138908,0.71354 1.472935,2.20321 1.649803,1.85448 2.921457,3.81242 3.895471,5.97185 1.163728,2.55874 1.250795,2.73686 1.31218,2.69962 0.1044,-0.0529 -0.215679,-1.94762 -0.510604,-3.09139 -0.567671,-2.16449 -1.684095,-4.48949 -3.097142,-6.40362 l -0.870829,-1.1933 0.39855,-0.34668 c 1.974117,-1.7121 3.698606,-4.80492 4.474444,-7.97335 0.410542,-1.67667 0.963508,-3.18779 1.373354,-3.74083 0.620926,-0.82802 2.589654,-1.77033 4.987889,-2.38533 1.128421,-0.28559 3.948819,-0.81028 6.751133,-1.26097 1.768729,-0.28562 1.977817,-0.33898 1.546317,-0.44464 -0.271245,-0.0664 -1.013448,-0.13055 -1.635408,-0.15216 z m -17.16549,21.75779 c -1.457301,2.34768 -3.063145,5.71302 -3.761815,7.85574 -0.605626,1.88038 -0.765877,3.18555 -0.560374,4.38405 0.256817,1.49362 0.814626,2.37926 3.459269,5.52683 1.25297,1.48103 2.461679,2.98994 2.693967,3.35297 0.418369,0.66424 1.035244,2.20391 1.376325,3.44436 0.165958,0.61583 0.193816,0.66012 0.701762,0.90047 0.489999,0.24076 0.6874,0.23648 2.644508,-0.17399 2.430924,-0.50152 4.762368,-0.62385 7.11951,-0.38765 2.797796,0.27155 2.995586,0.28521 2.994031,0.21343 0.0064,-0.11682 -1.794532,-0.78703 -2.932529,-1.1035 -2.158334,-0.59065 -4.73006,-0.78628 -7.094265,-0.5196 l -1.468842,0.15751 -0.100958,-0.5185 c -0.495665,-2.56567 -2.311887,-5.60554 -4.667905,-7.86166 -1.246772,-1.19388 -2.278958,-2.42833 -2.55298,-3.05977 -0.40662,-0.95176 -0.238326,-3.12787 0.428191,-5.51231 0.316874,-1.12004 1.272681,-3.82492 2.283528,-6.47715 0.637007,-1.67456 0.695351,-1.88231 0.38809,-1.56146 -0.193095,0.20173 -0.619775,0.81241 -0.949479,1.34023 z M 67.540884,288.207 c 1.304502,2.4359 3.416049,5.50925 4.922371,7.18569 1.325642,1.46469 2.375823,2.25605 3.516507,2.67732 1.421927,0.5244 2.467816,0.48415 6.516008,-0.23239 1.909099,-0.3446 3.820205,-0.63692 4.250746,-0.65657 0.784429,-0.0302 2.426271,0.20541 3.671064,0.53025 0.616305,0.16419 0.6686,0.16217 1.130713,-0.1575 0.453504,-0.30397 0.548492,-0.47707 1.171573,-2.37721 0.781129,-2.35602 1.840912,-4.43626 3.22404,-6.3595 1.634061,-2.28719 1.74479,-2.45165 1.681851,-2.4862 -0.09816,-0.0636 -1.578857,1.16061 -2.421925,1.9879 -1.59067,1.57386 -3.045965,3.70321 -3.997124,5.88402 l -0.598011,1.3508 -0.499504,-0.17183 c -2.469775,-0.8536 -6.01049,-0.80063 -9.142349,0.11169 -1.657313,0.48279 -3.242472,0.75947 -3.926336,0.68106 -1.027545,-0.12373 -2.827978,-1.35755 -4.559699,-3.12698 -0.811544,-0.83445 -2.676134,-3.01464 -4.46761,-5.21616 -1.131715,-1.38896 -1.282459,-1.54336 -1.158221,-1.11683 0.07815,0.26809 0.393672,0.94294 0.685926,1.49239 z m 27.425543,3.98684 c 2.761811,0.0882 6.479193,-0.20375 8.684183,-0.67004 1.93128,-0.41571 3.14171,-0.92951 4.07689,-1.70673 1.1651,-0.96922 1.65319,-1.89511 3.05674,-5.75923 0.65612,-1.82562 1.35852,-3.62684 1.55677,-4.00953 0.36606,-0.69443 1.39103,-1.9985 2.29474,-2.91411 0.45035,-0.45164 0.47478,-0.49791 0.42895,-1.05798 -0.0365,-0.54473 -0.13891,-0.71354 -1.47293,-2.20321 -1.64981,-1.85448 -2.92146,-3.81242 -3.89547,-5.97185 -1.16373,-2.55874 -1.2508,-2.73686 -1.31218,-2.69962 -0.1044,0.0529 0.21568,1.94762 0.5106,3.09139 0.56767,2.16449 1.6841,4.48949 3.09714,6.40362 l 0.87083,1.1933 -0.39855,0.34668 c -1.97411,1.7121 -3.6986,4.80492 -4.47444,7.97335 -0.41054,1.67667 -0.96351,3.18779 -1.37336,3.74083 -0.62092,0.82802 -2.58965,1.77033 -4.98788,2.38533 -1.12843,0.28559 -3.948824,0.81028 -6.75114,1.26097 -1.768729,0.28562 -1.977816,0.33898 -1.546315,0.44464 0.271243,0.0664 1.013447,0.13055 1.635409,0.15216 z m 17.165493,-21.75779 c 1.4573,-2.34768 3.06314,-5.71302 3.76181,-7.85574 0.60563,-1.88038 0.76588,-3.18555 0.56038,-4.38405 -0.25682,-1.49362 -0.81463,-2.37926 -3.45927,-5.52683 -1.25297,-1.48103 -2.46168,-2.98994 -2.69397,-3.35297 -0.41837,-0.66424 -1.03524,-2.20391 -1.37633,-3.44436 -0.16595,-0.61583 -0.19381,-0.66012 -0.70176,-0.90047 -0.49,-0.24076 -0.6874,-0.23648 -2.64451,0.17399 -2.43092,0.50152 -4.76236,0.62385 -7.119505,0.38765 -2.797796,-0.27155 -2.995586,-0.28521 -2.994033,-0.21343 -0.0064,0.11682 1.794534,0.78703 2.932531,1.1035 2.158337,0.59065 4.730057,0.78628 7.094267,0.5196 l 1.46884,-0.15751 0.10096,0.5185 c 0.49566,2.56567 2.31188,5.60554 4.6679,7.86166 1.24678,1.19388 2.27896,2.42833 2.55298,3.05977 0.40662,0.95176 0.23833,3.12787 -0.42819,5.51231 -0.31687,1.12004 -1.27268,3.82492 -2.28353,6.47715 -0.637,1.67456 -0.69535,1.88231 -0.38809,1.56146 0.1931,-0.20173 0.61978,-0.81241 0.94948,-1.34023 z"
         inkscape:transform-center-y="-32.333602"
         inkscape:transform-center-x="5.223721"
         style="fill:#7f03a8;stroke:none;stroke-width:0.0126927" />
      <path
         inkscape:connector-curvature="0"
         id="path832"
         d="m 98.372374,276.65883 c 5.595646,0.11261 9.514606,0.24868 10.531216,0.39502 0.70391,0.0783 1.34902,0.14085 1.43435,0.11643 0.23736,-0.0625 0.39003,-1.45559 0.26143,-2.15191 -0.10524,-0.54823 -0.18846,-0.64932 -0.84116,-0.91876 -1.40044,-0.59587 -4.55672,-3.04897 -6.38213,-4.94061 -2.80861,-2.92725 -4.442671,-4.12152 -6.879144,-5.0265 -2.748122,-1.03577 -5.388399,-1.23896 -7.732583,-0.60639 -0.563994,0.16406 -1.255596,0.45149 -1.543116,0.64235 -1.165831,0.82223 -2.568329,2.76295 -2.873799,4.0206 -0.145764,0.544 -0.134982,0.56265 0.102643,0.26387 2.361715,-2.99165 3.388116,-3.64639 5.921819,-3.6924 2.157188,-0.0523 5.895123,1.40626 7.707167,2.99491 0.48386,0.42905 1.687317,1.76007 2.675233,2.95454 0.97714,1.17583 2.24623,2.55594 2.79572,3.03412 1.01183,0.86994 1.01183,0.86994 0.54211,0.91742 -5.496464,0.57585 -6.257361,0.59258 -7.610038,0.23013 -1.132125,-0.30335 -1.494708,-0.47929 -2.516523,-1.19434 -1.726226,-1.20319 -1.810504,-1.24153 -1.353452,-0.53598 0.212383,0.32479 0.941975,1.07183 1.604097,1.65898 1.135219,0.99756 1.289074,1.0703 2.526816,1.44962 0.716513,0.20772 1.455597,0.39002 1.629153,0.38922 z"
         style="fill:#cc4878;stroke:none;stroke-width:0.01522165" />
      <path
         inkscape:connector-curvature="0"
         id="path830"
         d="m 100.38118,259.71891 c 2.89534,-4.78967 4.97266,-8.11554 5.6077,-8.92279 0.41977,-0.57045 0.79649,-1.09786 0.818,-1.18396 0.0646,-0.2368 -1.06556,-1.06557 -1.73289,-1.30237 -0.52741,-0.18294 -0.65656,-0.16143 -1.21625,0.26908 -1.21626,0.91489 -4.918846,2.42175 -7.469757,3.05679 -3.939381,0.9687 -5.790671,1.7867 -7.792646,3.44427 -2.271064,1.86205 -3.767167,4.047 -4.391446,6.39341 -0.139912,0.57046 -0.236797,1.31313 -0.215265,1.65756 0.129162,1.42075 1.10862,3.60571 2.045041,4.49907 0.398238,0.39823 0.419778,0.39823 0.279829,0.0431 -1.409994,-3.54114 -1.463812,-4.7574 -0.236799,-6.97465 1.03328,-1.89433 4.165417,-4.40219 6.447242,-5.17714 0.613505,-0.20452 2.367928,-0.58123 3.896323,-0.83955 1.506868,-0.25831 3.336631,-0.66733 4.025488,-0.90411 1.25931,-0.44131 1.25931,-0.44131 1.06557,-0.0108 -2.249542,5.048 -2.615495,5.71532 -3.605719,6.70554 -0.828776,0.82878 -1.162434,1.05481 -2.292596,1.58221 -1.905106,0.89337 -1.980443,0.94718 -1.140899,0.90413 0.387471,-0.0215 1.399222,-0.27985 2.238764,-0.55969 1.431528,-0.48435 1.571445,-0.58123 2.518627,-1.46381 0.538152,-0.51665 1.065573,-1.06557 1.151653,-1.21627 z"
         style="fill:#f99640;stroke:none;stroke-width:0.01522165" />
      <path
         inkscape:connector-curvature="0"
         id="path828"
         d="m 86.715179,249.50928 c -2.700304,-4.90228 -4.541944,-8.36422 -4.923513,-9.31781 -0.284152,-0.64876 -0.552537,-1.23871 -0.616349,-1.3004 -0.172768,-0.17434 -1.455592,0.39003 -1.994328,0.84956 -0.422156,0.36524 -0.468094,0.48786 -0.375085,1.18784 0.184184,1.51075 -0.362122,5.47071 -1.087622,7.99738 -1.13078,3.89596 -1.348002,5.90823 -0.913504,8.47078 0.477058,2.89782 1.621233,5.28596 3.34114,6.9998 0.424075,0.40641 1.018805,0.86163 1.327846,1.01521 1.294995,0.59852 3.676957,0.84275 4.918837,0.47848 0.543999,-0.14577 0.554771,-0.16443 0.177208,-0.22083 -3.771715,-0.54947 -4.851932,-1.111 -6.158619,-3.28225 -1.123906,-1.84201 -1.729709,-5.80845 -1.259925,-8.17205 0.129635,-0.63356 0.680601,-2.34129 1.2211,-3.79409 0.529719,-1.43414 1.090387,-3.22326 1.229751,-3.93823 0.247478,-1.31124 0.247478,-1.31124 0.523465,-0.92819 3.246927,4.47216 3.641865,5.12275 4.004318,6.47542 0.303355,1.13213 0.33228,1.5341 0.223933,2.77655 -0.17888,2.09655 -0.169942,2.18871 0.212553,1.44011 0.175091,-0.34632 0.45724,-1.35168 0.634669,-2.21867 0.296304,-1.48192 0.282369,-1.65153 -0.0084,-2.9131 -0.178361,-0.72438 -0.390025,-1.4556 -0.477504,-1.6055 z"
         style="fill:#cc4878;stroke:none;stroke-width:0.01522165" />
      <path
         inkscape:connector-curvature="0"
         id="path826"
         d="m 71.040373,256.23957 c -5.595648,-0.11261 -9.514601,-0.24868 -10.531216,-0.39502 -0.703914,-0.0783 -1.349015,-0.14085 -1.434354,-0.11643 -0.237355,0.0625 -0.390023,1.45559 -0.261429,2.15191 0.10524,0.54823 0.188463,0.64932 0.841163,0.91876 1.400438,0.59587 4.556715,3.04897 6.382128,4.94061 2.808608,2.92725 4.442673,4.12152 6.879146,5.0265 2.748122,1.03577 5.388398,1.23896 7.732586,0.60639 0.563991,-0.16406 1.255593,-0.45149 1.543113,-0.64235 1.165831,-0.82223 2.568329,-2.76295 2.873798,-4.0206 0.145765,-0.544 0.134983,-0.56265 -0.102639,-0.26387 -2.361719,2.99165 -3.38812,3.64639 -5.921822,3.6924 -2.157187,0.0523 -5.895123,-1.40626 -7.707167,-2.99491 -0.48386,-0.42905 -1.687316,-1.76007 -2.675229,-2.95454 -0.977141,-1.17583 -2.246238,-2.55594 -2.795728,-3.03412 -1.011829,-0.86994 -1.011829,-0.86994 -0.542107,-0.91742 5.496465,-0.57585 6.257361,-0.59258 7.610038,-0.23013 1.132127,0.30335 1.494707,0.47929 2.516524,1.19434 1.726225,1.20319 1.810505,1.24153 1.353451,0.53598 -0.212384,-0.32479 -0.941973,-1.07183 -1.604096,-1.65898 -1.13522,-0.99756 -1.289074,-1.0703 -2.526817,-1.44962 -0.716512,-0.20772 -1.455597,-0.39002 -1.629153,-0.38922 z"
         style="fill:#f99640;stroke:none;stroke-width:0.01522165" />
      <path
         inkscape:connector-curvature="0"
         id="path824"
         d="m 69.031569,273.17949 c -2.895346,4.78967 -4.972658,8.11554 -5.607706,8.92279 -0.419765,0.57045 -0.796483,1.09786 -0.817999,1.18396 -0.06459,0.2368 1.065565,1.06557 1.73289,1.30237 0.527412,0.18294 0.656568,0.16143 1.216256,-0.26908 1.216253,-0.91489 4.918842,-2.42175 7.469753,-3.05679 3.939382,-0.9687 5.790672,-1.7867 7.792649,-3.44427 2.271065,-1.86205 3.767164,-4.047 4.391443,-6.39341 0.139912,-0.57046 0.236797,-1.31313 0.215265,-1.65756 -0.129161,-1.42075 -1.10862,-3.60571 -2.045041,-4.49907 -0.398238,-0.39823 -0.419777,-0.39823 -0.279829,-0.0431 1.409994,3.54114 1.463813,4.7574 0.2368,6.97465 -1.03328,1.89433 -4.165416,4.40219 -6.447243,5.17714 -0.613505,0.20452 -2.367928,0.58123 -3.896323,0.83955 -1.506868,0.25831 -3.336631,0.66733 -4.025486,0.90411 -1.259312,0.44131 -1.259312,0.44131 -1.065569,0.0108 2.249539,-5.048 2.615492,-5.71532 3.605717,-6.70554 0.828776,-0.82878 1.162433,-1.05481 2.292595,-1.58221 1.905106,-0.89337 1.980444,-0.94718 1.140899,-0.90413 -0.387472,0.0215 -1.399221,0.27985 -2.238764,0.55969 -1.431528,0.48435 -1.571443,0.58123 -2.518626,1.46381 -0.538152,0.51665 -1.065573,1.06557 -1.151651,1.21627 z"
         style="fill:#cc4878;stroke:none;stroke-width:0.01522165" />
      <path
         inkscape:connector-curvature="0"
         id="path102"
         d="m 82.697571,283.38912 c 2.700303,4.90228 4.54194,8.36422 4.923509,9.31781 0.284152,0.64876 0.552537,1.23871 0.61635,1.3004 0.172767,0.17434 1.455592,-0.39003 1.994328,-0.84956 0.422156,-0.36524 0.468096,-0.48786 0.375084,-1.18784 -0.184184,-1.51075 0.362122,-5.47071 1.087623,-7.99738 1.130779,-3.89596 1.348002,-5.90823 0.913506,-8.47078 -0.47706,-2.89782 -1.621235,-5.28596 -3.341143,-6.9998 -0.424071,-0.40641 -1.018804,-0.86163 -1.327846,-1.01521 -1.294992,-0.59852 -3.676957,-0.84275 -4.918837,-0.47848 -0.543999,0.14577 -0.55477,0.16443 -0.177204,0.22083 3.771714,0.54947 4.851929,1.111 6.158616,3.28225 1.123908,1.84201 1.729708,5.80845 1.259925,8.17205 -0.129636,0.63356 -0.680615,2.34129 -1.2211,3.79409 -0.52972,1.43414 -1.090388,3.22326 -1.229752,3.93823 -0.247478,1.31124 -0.247478,1.31124 -0.523457,0.92819 -3.246927,-4.47216 -3.641865,-5.12275 -4.004318,-6.47542 -0.303355,-1.13212 -0.332277,-1.5341 -0.223932,-2.77654 0.178879,-2.09656 0.169944,-2.18871 -0.212553,-1.44012 -0.175088,0.34633 -0.45724,1.35168 -0.63467,2.21867 -0.296304,1.48192 -0.282368,1.65153 0.0084,2.91311 0.178361,0.72438 0.390025,1.45559 0.477504,1.60549 z"
         style="fill:#f99640;stroke:none;stroke-width:0.01522165" />
    </g>
  </g>
</svg>
