<?xml version="1.0" encoding="UTF-8" standalone="no"?>
<!-- Created with Inkscape (http://www.inkscape.org/) -->

<svg
   xmlns:dc="http://purl.org/dc/elements/1.1/"
   xmlns:cc="http://creativecommons.org/ns#"
   xmlns:rdf="http://www.w3.org/1999/02/22-rdf-syntax-ns#"
   xmlns:svg="http://www.w3.org/2000/svg"
   xmlns="http://www.w3.org/2000/svg"
   xmlns:sodipodi="http://sodipodi.sourceforge.net/DTD/sodipodi-0.dtd"
   xmlns:inkscape="http://www.inkscape.org/namespaces/inkscape"
   width="76mm"
   height="76mm"
   viewBox="0 0 76 76"
   version="1.1"
   id="svg60"
   inkscape:version="0.92.3 (2405546, 2018-03-11)"
   sodipodi:docname="librosa_logo_condensed.svg"
   inkscape:export-filename="/home/bmcfee/git/librosa_media/logo/librosa_logo_condensed-redone.png"
   inkscape:export-xdpi="60.127537"
   inkscape:export-ydpi="60.127537">
  <defs
     id="defs54">
    <inkscape:path-effect
       effect="powerstroke"
       id="path-effect840"
       is_visible="true"
       offset_points="31,0.33051223"
       sort_points="true"
       interpolator_type="CubicBezierFit"
       interpolator_beta="0.2"
       start_linecap_type="butt"
       linejoin_type="extrp_arc"
       miter_limit="4"
       end_linecap_type="butt" />
    <inkscape:path-effect
       effect="copy_rotate"
       starting_point="67.13018,237.14366"
       origin="60.938111,237.13401"
       id="path-effect836"
       is_visible="true"
       copies_to_360="true"
       fuse_paths="false"
       starting_angle="0"
       rotation_angle="51.43"
       num_copies="7" />
  </defs>
  <sodipodi:namedview
     id="base"
     pagecolor="#ffffff"
     bordercolor="#666666"
     borderopacity="1.0"
     inkscape:pageopacity="0.0"
     inkscape:pageshadow="2"
     inkscape:zoom="2.8"
     inkscape:cx="67.330785"
     inkscape:cy="139.01573"
     inkscape:document-units="mm"
     inkscape:current-layer="layer1"
     showgrid="true"
     inkscape:pagecheckerboard="true"
     showguides="true"
     inkscape:guide-bbox="true"
     inkscape:snap-object-midpoints="true"
     fit-margin-top="0"
     fit-margin-left="0"
     fit-margin-right="0"
     fit-margin-bottom="0"
     inkscape:window-width="1920"
     inkscape:window-height="1053"
     inkscape:window-x="0"
     inkscape:window-y="27"
     inkscape:window-maximized="1">
    <inkscape:grid
       type="axonomgrid"
       id="grid62"
       units="mm"
       empspacing="3"
       spacingy="1"
       gridanglex="30"
       gridanglez="30"
       originx="-23.321446"
       originy="-21.773829" />
    <sodipodi:guide
       position="37.300331,38.226171"
       orientation="0,1"
       id="guide68"
       inkscape:locked="false" />
    <sodipodi:guide
       position="36.434305,38.226171"
       orientation="1,0"
       id="guide149"
       inkscape:locked="false" />
  </sodipodi:namedview>
  <metadata
     id="metadata57">
    <rdf:RDF>
      <cc:Work
         rdf:about="">
        <dc:format>image/svg+xml</dc:format>
        <dc:type
           rdf:resource="http://purl.org/dc/dcmitype/StillImage" />
        <dc:title></dc:title>
      </cc:Work>
    </rdf:RDF>
  </metadata>
  <g
     inkscape:label="Layer 1"
     inkscape:groupmode="layer"
     id="layer1"
     transform="translate(-23.321447,-199.22618)">
    <g
       id="g187"
       transform="matrix(0.91721044,0,0,0.91721044,5.8049545,19.799322)">
      <path
         inkscape:transform-center-y="21.92262"
         inkscape:transform-center-x="-10.583333"
         d="m 68.950174,252.62752 c -5.924625,1.4604 -10.090118,2.42295 -11.202023,2.55571 -0.763396,0.11617 -1.460412,0.23234 -1.543389,0.28213 -0.232338,0.13276 0,1.64296 0.331911,2.33998 0.265529,0.54765 0.381699,0.63063 1.145096,0.7302 1.642963,0.23234 5.659096,1.92509 8.115243,3.4021 3.783794,2.29019 5.841648,3.08678 8.662897,3.35231 3.186353,0.31531 6.024198,-0.21574 8.314392,-1.54339 0.547651,-0.33192 1.194882,-0.82978 1.443813,-1.1119 0.995735,-1.19489 1.92509,-3.63444 1.891897,-5.04507 0,-0.61403 -0.01662,-0.63063 -0.18255,-0.24893 -1.642967,3.81699 -2.539129,4.79613 -5.19442,5.55953 -2.256999,0.66382 -6.605044,0.18254 -8.961618,-0.97915 -0.630631,-0.31531 -2.273594,-1.37743 -3.651029,-2.35657 -1.360838,-0.96255 -3.086779,-2.05785 -3.800389,-2.40636 -1.311052,-0.63063 -1.311052,-0.63063 -0.829779,-0.81319 5.625904,-2.15742 6.422492,-2.38976 7.949287,-2.38976 1.27786,0 1.709345,0.083 2.987205,0.54766 2.157426,0.77999 2.257,0.79658 1.576581,0.18254 -0.315316,-0.28212 -1.294456,-0.86296 -2.157426,-1.29445 -1.477008,-0.73021 -1.659559,-0.76339 -3.070184,-0.81319 -0.813184,-0.0166 -1.642964,0 -1.825515,0.0498 z"
         id="path192"
         inkscape:connector-curvature="0"
         style="fill:#cc4878;stroke:none;stroke-width:0.01659559" />
      <path
         style="fill:#cc4878;stroke:none;stroke-width:0.01659559"
         inkscape:connector-curvature="0"
         id="path102"
         d="m 52.104908,221.47711 c 5.924625,-1.4604 10.090118,-2.42295 11.202023,-2.55571 0.763396,-0.11617 1.460412,-0.23234 1.543389,-0.28213 0.232338,-0.13276 0,-1.64296 -0.331911,-2.33998 -0.265529,-0.54765 -0.381699,-0.63063 -1.145096,-0.7302 -1.642963,-0.23234 -5.659096,-1.92509 -8.115243,-3.4021 -3.783794,-2.29019 -5.841648,-3.08678 -8.662897,-3.35231 -3.186353,-0.31531 -6.024198,0.21574 -8.314392,1.54339 -0.547651,0.33192 -1.194882,0.82978 -1.443813,1.1119 -0.995735,1.19489 -1.92509,3.63444 -1.891897,5.04507 0,0.61403 0.01662,0.63063 0.18255,0.24893 1.642967,-3.81699 2.539129,-4.79613 5.19442,-5.55953 2.256999,-0.66382 6.605044,-0.18254 8.961618,0.97915 0.630631,0.31531 2.273594,1.37743 3.651029,2.35657 1.360838,0.96255 3.086779,2.05785 3.800389,2.40636 1.311052,0.63063 1.311052,0.63063 0.829779,0.81319 -5.625904,2.15742 -6.422492,2.38976 -7.949287,2.38976 -1.27786,0 -1.709345,-0.083 -2.987205,-0.54766 -2.157426,-0.77999 -2.257,-0.79658 -1.576581,-0.18254 0.315316,0.28212 1.294456,0.86296 2.157426,1.29445 1.477008,0.73021 1.659559,0.76339 3.070184,0.81319 0.813184,0.0166 1.642964,0 1.825515,-0.0498 z"
         inkscape:transform-center-x="10.583333"
         inkscape:transform-center-y="-21.92262" />
      <path
         style="fill:#cc4878;stroke:none;stroke-width:0.01659559"
         inkscape:connector-curvature="0"
         id="path104"
         d="m 78.227381,237.5457 c -1.697569,5.86108 -2.946723,9.94978 -3.387702,10.97909 -0.281092,0.71921 -0.528994,1.38093 -0.527363,1.47768 -0.0012,0.26759 1.422845,0.82148 2.192438,0.88255 0.607043,0.0439 0.736991,-0.0153 1.20492,-0.62658 1.022694,-1.30668 4.496725,-3.93838 7.003926,-5.32696 3.87526,-2.13177 5.594054,-3.51562 7.234634,-5.82613 1.866243,-2.60181 2.825263,-5.32498 2.820581,-7.97217 -0.01363,-0.64024 -0.121169,-1.44969 -0.241027,-1.80633 -0.536937,-1.45978 -2.184972,-3.4844 -3.42321,-4.16097 -0.531766,-0.30701 -0.554452,-0.30092 -0.306855,0.0336 2.484127,3.33135 2.884006,4.59702 2.217485,7.27827 -0.553615,2.28652 -3.144438,5.8114 -5.328778,7.27141 -0.588382,0.38849 -2.329687,1.28028 -3.866364,1.9836 -1.514012,0.69724 -3.32554,1.6443 -3.984164,2.08805 -1.201667,0.82009 -1.201667,0.82009 -1.119132,0.31202 0.944571,-5.95089 1.141653,-6.75692 1.90505,-8.07917 0.63893,-1.10666 0.926553,-1.43883 1.96789,-2.31316 1.754204,-1.47839 1.818359,-1.55633 0.946375,-1.27409 -0.401981,0.13201 -1.394573,0.68955 -2.19974,1.22116 -1.370884,0.91402 -1.490894,1.05552 -2.239335,2.25226 -0.420968,0.69594 -0.821482,1.42285 -0.869629,1.60584 z"
         inkscape:transform-center-x="-24.013029"
         inkscape:transform-center-y="0.86679129" />
      <path
         inkscape:transform-center-y="-0.86679096"
         inkscape:transform-center-x="24.013029"
         d="m 42.827701,236.55893 c 1.697569,-5.86108 2.946723,-9.94978 3.387702,-10.9791 0.281092,-0.7192 0.528994,-1.38092 0.527363,-1.47767 0.0012,-0.26759 -1.422845,-0.82148 -2.192438,-0.88255 -0.607043,-0.0439 -0.736991,0.0153 -1.204919,0.62658 -1.022694,1.30668 -4.496725,3.93838 -7.003927,5.32696 -3.87526,2.13176 -5.594054,3.51562 -7.234634,5.82613 -1.866243,2.60181 -2.825263,5.32498 -2.820581,7.97217 0.01363,0.64024 0.121169,1.44969 0.241027,1.80633 0.536938,1.45978 2.184972,3.4844 3.42321,4.16097 0.531766,0.30701 0.554452,0.30092 0.306855,-0.0336 -2.484127,-3.33135 -2.884006,-4.59702 -2.217484,-7.27827 0.553614,-2.28652 3.144438,-5.8114 5.328778,-7.27141 0.588382,-0.38849 2.329686,-1.28028 3.866364,-1.9836 1.514011,-0.69724 3.325539,-1.6443 3.984163,-2.08805 1.201668,-0.82009 1.201668,-0.82009 1.119133,-0.31202 -0.944572,5.95089 -1.141654,6.75692 -1.905051,8.07917 -0.63893,1.10666 -0.926553,1.43883 -1.96789,2.31316 -1.754204,1.47839 -1.818358,1.55633 -0.946375,1.27409 0.401981,-0.13201 1.394574,-0.68955 2.19974,-1.22116 1.370884,-0.91402 1.490894,-1.05552 2.239335,-2.25226 0.420968,-0.69594 0.821482,-1.42285 0.869629,-1.60584 z"
         id="path106"
         inkscape:connector-curvature="0"
         style="fill:#cc4878;stroke:none;stroke-width:0.01659559" />
      <path
         inkscape:transform-center-y="-19.419077"
         inkscape:transform-center-x="-12.406945"
         d="m 69.804745,221.9705 c 4.22706,4.40067 7.143401,7.52682 7.81432,8.42338 0.482308,0.60304 0.931423,1.14858 1.016027,1.19555 0.23114,0.13483 1.422845,-0.82148 1.86053,-1.45743 0.34154,-0.50377 0.355245,-0.64591 0.05983,-1.35679 -0.620271,-1.53902 -1.162374,-5.86346 -1.111319,-8.72905 0.09146,-4.42196 -0.24759,-6.60241 -1.42826,-9.17845 -1.320112,-2.91711 -3.198936,-5.10924 -5.493811,-6.42878 -0.561279,-0.30831 -1.316053,-0.61991 -1.684841,-0.69443 -1.532675,-0.26488 -4.110065,0.15005 -5.315111,0.88411 -0.531761,0.30701 -0.53783,0.32971 -0.124329,0.28254 4.127097,-0.48564 5.423139,-0.19911 7.411909,1.71874 1.703377,1.6227 3.460601,5.62886 3.632837,8.25056 0.04225,0.7038 -0.05609,2.65771 -0.215334,4.34017 -0.153179,1.65979 -0.238764,3.70215 -0.183778,4.49441 0.109386,1.45072 0.109386,1.45072 -0.289348,1.12521 -4.681337,-3.79347 -5.280838,-4.36716 -6.044242,-5.68941 -0.638931,-1.10666 -0.782787,-1.52183 -1.01931,-2.86082 -0.403222,-2.25838 -0.438642,-2.35291 -0.630207,-1.45663 -0.08667,0.41413 -0.100119,1.55251 -0.04231,2.51561 0.106122,1.64423 0.16866,1.81891 0.830846,3.06545 0.392218,0.71254 0.821484,1.42285 0.955884,1.55604 z"
         id="path108"
         inkscape:connector-curvature="0"
         style="fill:#cc4878;stroke:none;stroke-width:0.01659559" />
      <path
         style="fill:#cc4878;stroke:none;stroke-width:0.01659559"
         inkscape:connector-curvature="0"
         id="path110"
         d="m 51.250337,252.13413 c -4.227059,-4.40067 -7.143401,-7.52682 -7.814328,-8.42338 -0.4823,-0.60304 -0.931415,-1.14858 -1.016019,-1.19555 -0.231139,-0.13483 -1.422845,0.82148 -1.860529,1.45743 -0.34154,0.50377 -0.355246,0.64591 -0.05983,1.35679 0.620272,1.53901 1.162375,5.86346 1.11132,8.72905 -0.09147,4.42196 0.247589,6.60241 1.428259,9.17845 1.320112,2.91711 3.198937,5.10924 5.493811,6.42878 0.56128,0.30831 1.316053,0.61991 1.684842,0.69443 1.532675,0.26488 4.110065,-0.15005 5.31511,-0.88411 0.531762,-0.30701 0.537831,-0.32971 0.124329,-0.28254 -4.127097,0.48564 -5.423139,0.19911 -7.411908,-1.71874 -1.703378,-1.6227 -3.460601,-5.62886 -3.632837,-8.25056 -0.04225,-0.7038 0.05609,-2.65771 0.215334,-4.34017 0.153178,-1.65979 0.238764,-3.70215 0.183777,-4.49441 -0.109385,-1.45072 -0.109385,-1.45072 0.289349,-1.12521 4.681336,3.79347 5.280838,4.36716 6.044241,5.68941 0.638931,1.10666 0.782787,1.52183 1.019311,2.86082 0.403221,2.25838 0.438642,2.35291 0.630206,1.45663 0.08667,-0.41413 0.10012,-1.55251 0.04232,-2.51561 -0.106123,-1.64423 -0.16866,-1.81891 -0.830847,-3.06545 -0.392218,-0.71254 -0.821483,-1.42285 -0.955884,-1.55604 z"
         inkscape:transform-center-x="12.406944"
         inkscape:transform-center-y="19.419077" />
    </g>
    <g
       id="g195"
       transform="matrix(0.85687749,0,0,0.85687749,9.3431332,33.968852)">
      <path
         d="m 33.391141,257.70734 c -0.172744,3.22012 0.07395,7.56477 0.56226,10.14925 0.436213,2.26382 1.005089,3.68909 1.888286,4.79985 1.101367,1.38392 2.169333,1.97678 6.642327,3.71205 2.113477,0.81167 4.197309,1.67673 4.638801,1.91771 0.800974,0.44466 2.296599,1.67351 3.342036,2.75107 0.515569,0.53686 0.568968,0.5665 1.223571,0.52721 0.636475,-0.0288 0.836035,-0.14403 2.60784,-1.66286 2.205429,-1.87803 4.521977,-3.31225 7.066139,-4.3941 3.014829,-1.29311 3.224863,-1.39019 3.182969,-1.46276 -0.05906,-0.12312 -2.277857,0.20242 -3.619809,0.51761 -2.539775,0.60762 -5.280699,1.85145 -7.54973,3.45175 L 51.961524,279 51.56707,278.52625 c -1.947521,-2.34673 -5.512678,-4.43682 -9.189839,-5.42212 -1.945888,-0.52139 -3.695019,-1.20476 -4.329911,-1.69693 -0.950413,-0.74539 -2.000088,-3.06624 -2.657018,-5.87993 -0.304704,-1.32381 -0.84558,-4.62779 -1.30061,-7.90879 -0.288535,-2.07089 -0.345499,-2.31619 -0.479682,-1.81541 -0.08435,0.31478 -0.177939,1.17915 -0.218869,1.90427 z"
         id="path180"
         inkscape:connector-curvature="0"
         style="fill:#7f03a8;stroke:none;stroke-width:0.01481274" />
      <path
         inkscape:transform-center-y="27.173734"
         inkscape:transform-center-x="-18.284894"
         style="fill:#7f03a8;stroke:none;stroke-width:0.01481274"
         inkscape:connector-curvature="0"
         id="path127"
         d="m 64.779468,271.07282 c 2.702334,1.75966 6.588258,3.71834 9.070638,4.58769 2.178632,0.75414 3.69739,0.97411 5.100935,0.76462 1.749194,-0.26185 2.796608,-0.89031 6.535893,-3.8964 1.759666,-1.42449 3.550746,-2.79661 3.980186,-3.05846 0.785574,-0.47134 2.597602,-1.15216 4.053515,-1.51876 0.722719,-0.17806 0.775087,-0.20949 1.068363,-0.79603 0.293296,-0.56561 0.293284,-0.79605 -0.136159,-3.08989 -0.523707,-2.84897 -0.607504,-5.57227 -0.272333,-8.31651 0.387548,-3.25747 0.408492,-3.4879 0.324697,-3.48791 -0.136155,-0.0104 -0.963627,2.07389 -1.361641,3.39365 -0.743673,2.50332 -1.036947,5.49895 -0.785562,8.26414 l 0.146644,1.71776 -0.607507,0.10473 c -3.006088,0.51324 -6.598737,2.55571 -9.290613,5.24758 -1.424481,1.42449 -2.890862,2.5976 -3.63454,2.90135 -1.120733,0.45038 -3.655486,0.199 -6.420678,-0.63892 -1.298805,-0.39803 -4.430573,-1.5816 -7.499518,-2.82804 -1.93771,-0.78556 -2.178628,-0.85888 -1.812032,-0.49228 0.230433,0.23043 0.932205,0.74367 1.539712,1.14168 z" />
      <path
         d="m 92.048476,250.57247 c 2.875077,-1.46046 6.514306,-3.84643 8.508374,-5.56156 1.74242,-1.50968 2.6923,-2.71498 3.21265,-4.03523 0.64783,-1.64577 0.62727,-2.86709 -0.10644,-7.60845 -0.35381,-2.23616 -0.64656,-4.47334 -0.65861,-4.97617 -0.0154,-0.916 0.301,-2.82567 0.71148,-4.26983 0.20715,-0.71492 0.20612,-0.77599 -0.1552,-1.32324 -0.34319,-0.53681 -0.54276,-0.65202 -2.74401,-1.42703 -2.729131,-0.97094 -5.129477,-2.26002 -7.338473,-3.92241 -2.627278,-1.96436 -2.816364,-2.09771 -2.85827,-2.02515 -0.07708,0.11271 1.314228,1.87147 2.258166,2.87604 1.796103,1.8957 4.243757,3.6475 6.764175,4.81239 l 1.560942,0.73188 -0.21305,0.57848 c -1.058566,2.85997 -1.08606,6.99253 -0.10077,10.6697 0.5214,1.94588 0.80416,3.80236 0.69537,4.59828 -0.17032,1.19577 -1.655401,3.26524 -3.763657,5.24101 -0.994107,0.92578 -3.584993,3.04619 -6.198914,5.08075 -1.64917,1.28533 -1.833126,1.45731 -1.332343,1.32313 0.314775,-0.0844 1.11014,-0.43548 1.75858,-0.76259 z"
         id="path129"
         inkscape:connector-curvature="0"
         style="fill:#7f03a8;stroke:none;stroke-width:0.01481274"
         inkscape:transform-center-x="-36.479994"
         inkscape:transform-center-y="-3.8159695" />
      <path
         inkscape:transform-center-y="-31.372027"
         inkscape:transform-center-x="-11.717263"
         style="fill:#7f03a8;stroke:none;stroke-width:0.01481274"
         inkscape:connector-curvature="0"
         id="path131"
         d="m 87.929156,216.70664 c 0.172744,-3.22012 -0.07395,-7.56477 -0.562265,-10.14925 -0.436211,-2.26382 -1.005091,-3.68909 -1.888286,-4.79985 -1.101364,-1.38392 -2.169338,-1.97678 -6.642331,-3.71205 -2.113477,-0.81167 -4.197307,-1.67673 -4.638795,-1.91771 -0.800979,-0.44466 -2.296602,-1.67351 -3.342041,-2.75107 -0.515564,-0.53686 -0.568967,-0.5665 -1.22356,-0.52722 -0.636486,0.0288 -0.836046,0.14404 -2.607849,1.66287 -2.205424,1.87803 -4.521973,3.31225 -7.066143,4.3941 -3.014825,1.29311 -3.224852,1.39019 -3.182967,1.46276 0.05907,0.12311 2.277855,-0.20242 3.619807,-0.51761 2.539776,-0.60762 5.280706,-1.85145 7.54974,-3.45175 l 1.414297,-0.98588 0.394454,0.47375 c 1.947523,2.34673 5.512678,4.43682 9.189846,5.42212 1.945881,0.52139 3.69502,1.20476 4.329912,1.69693 0.950407,0.74539 2.000081,3.06624 2.65702,5.87993 0.304695,1.32381 0.845581,4.62779 1.300601,7.90879 0.288544,2.07089 0.345505,2.31619 0.479693,1.81541 0.08429,-0.3148 0.177933,-1.17915 0.218867,-1.90427 z" />
      <path
         d="m 56.540828,203.34116 c -2.702334,-1.75966 -6.588258,-3.71834 -9.070641,-4.58769 -2.178631,-0.75414 -3.697391,-0.97411 -5.100935,-0.76462 -1.749192,0.26185 -2.796611,0.89031 -6.535895,3.8964 -1.759666,1.42449 -3.550745,2.79661 -3.980183,3.05846 -0.785577,0.47134 -2.597604,1.15216 -4.053517,1.51876 -0.722717,0.17806 -0.775087,0.20949 -1.068366,0.79602 -0.293302,0.56562 -0.293281,0.79606 0.136163,3.0899 0.523709,2.84897 0.607506,5.57227 0.272331,8.31651 -0.387547,3.25747 -0.408487,3.4879 -0.324697,3.48791 0.136152,0.0104 0.963627,-2.07389 1.36164,-3.39365 0.743674,-2.50332 1.036951,-5.49895 0.785567,-8.26414 l -0.146648,-1.71776 0.607506,-0.10473 c 3.006089,-0.51324 6.598738,-2.55571 9.290617,-5.24758 1.424477,-1.42449 2.890863,-2.5976 3.63454,-2.90135 1.12073,-0.45038 3.655483,-0.199 6.420679,0.63892 1.298801,0.39803 4.430574,1.5816 7.499514,2.82804 1.937715,0.78556 2.178631,0.85888 1.812037,0.49228 -0.23048,-0.2304 -0.932207,-0.74367 -1.539712,-1.14168 z"
         id="path133"
         inkscape:connector-curvature="0"
         style="fill:#7f03a8;stroke:none;stroke-width:0.01481274"
         inkscape:transform-center-x="18.284895"
         inkscape:transform-center-y="-27.173734" />
      <path
         inkscape:transform-center-y="3.8159695"
         inkscape:transform-center-x="36.479994"
         style="fill:#7f03a8;stroke:none;stroke-width:0.01481274"
         inkscape:connector-curvature="0"
         id="path135"
         d="m 29.271818,223.84151 c -2.875077,1.46046 -6.514306,3.84643 -8.508376,5.56156 -1.74242,1.50968 -2.6923,2.71498 -3.212648,4.03523 -0.647828,1.64577 -0.627275,2.86709 0.106434,7.60845 0.353811,2.23616 0.646562,4.47334 0.658612,4.97617 0.0154,0.916 -0.301002,2.82567 -0.711474,4.26983 -0.207154,0.71492 -0.206119,0.77599 0.155191,1.32324 0.34319,0.53682 0.542768,0.65202 2.744013,1.42703 2.729135,0.97094 5.129481,2.26002 7.338475,3.92241 2.627278,1.96436 2.816366,2.09771 2.85827,2.02515 0.07708,-0.11271 -1.314228,-1.87147 -2.258167,-2.87604 -1.796102,-1.8957 -4.243755,-3.6475 -6.764172,-4.81239 l -1.560948,-0.73188 0.213054,-0.57848 c 1.058566,-2.85997 1.08606,-6.99253 0.100771,-10.6697 -0.521406,-1.94588 -0.804156,-3.80236 -0.695372,-4.59828 0.170324,-1.19577 1.655402,-3.26524 3.76366,-5.24101 0.994105,-0.92578 3.584993,-3.04619 6.198912,-5.08075 1.649172,-1.28533 1.833127,-1.45731 1.332345,-1.32313 -0.314772,0.0844 -1.110141,0.43548 -1.75858,0.76259 z" />
    </g>
    <path
       style="fill:#f99640;fill-rule:nonzero;stroke:#f99640;stroke-width:0.77499998;stroke-linecap:round;stroke-linejoin:round;stroke-miterlimit:4;stroke-dasharray:none;stroke-dashoffset:0;paint-order:markers fill stroke"
       id="path834"
       d="m 56.107521,227.45459 c 0.03377,-0.0855 0.06758,-0.17097 0.101435,-0.25646 0.05741,-0.14433 0.125691,-0.28506 0.197847,-0.424 0.07635,-0.14742 0.163655,-0.28996 0.261684,-0.42677 0.111013,-0.15174 0.253289,-0.28071 0.404414,-0.40041 0.167243,-0.13479 0.367007,-0.21974 0.576996,-0.28659 0.234932,-0.0715 0.48072,-0.0992 0.727516,-0.10878 0.753033,-0.0309 1.443318,-0.0608 2.148978,0.12433 0.267918,0.0735 0.519377,0.18435 0.765865,0.30176 0.249451,0.11855 0.478248,0.26595 0.694771,0.42721 0.219146,0.16684 0.408646,0.36074 0.588262,0.56086 0.178527,0.20128 0.335058,0.41677 0.481834,0.63722 0.142396,0.21905 0.26844,0.4461 0.395406,0.67248 0.119394,0.21362 0.231745,0.4303 0.343997,0.64697 0.105457,0.19687 0.209467,0.39432 0.310693,0.59295 0.09183,0.17915 0.179191,0.3601 0.263729,0.54209 0.07641,0.16508 0.160419,0.32713 0.244103,0.48933 0.07221,0.14922 0.156817,0.29313 0.24322,0.43607 0.0824,0.1291 0.167613,0.25681 0.258069,0.3815 0.08232,0.11395 0.175406,0.22091 0.270938,0.32617 0.0864,0.096 0.183678,0.18286 0.286857,0.26427 0.102918,0.0762 0.217303,0.13757 0.331787,0.19843 0.110892,0.0559 0.227359,0.10153 0.345007,0.14447 0.115337,0.0426 0.236783,0.0646 0.358924,0.0845 0.128804,0.02 0.25976,0.0289 0.390265,0.0342 0.02189,7.9e-4 0.04383,0.002 0.06572,0.004 0.08509,0.004 0.04643,0.004 0.131024,0.004 0.02165,9e-5 0.0866,3e-4 0.06495,2.6e-4 -1.344984,-0.003 -1.746634,0.001 -1.245014,-0.004 0.131844,-5.4e-4 0.263356,-0.009 0.394386,-0.022 0.132963,-0.0138 0.265491,-0.0308 0.397659,-0.0497 0.06561,-0.009 0.130402,-0.0227 0.195271,-0.0356 0,0 1.379736,0.16704 1.379736,0.16704 -0.06524,0.0155 -0.130819,0.0292 -0.196616,0.0427 -0.132085,0.024 -0.265586,0.0393 -0.398737,0.0577 -0.131716,0.0138 -0.263496,0.0286 -0.396214,0.0337 -0.589359,0.0163 -1.180533,0.0219 -1.769128,-0.0118 -0.132097,-0.0116 -0.264257,-0.0233 -0.393564,-0.0509 -0.124377,-0.0264 -0.245991,-0.0616 -0.362382,-0.10902 -0.118975,-0.048 -0.236132,-0.0999 -0.346494,-0.1624 -0.117571,-0.0662 -0.232481,-0.13711 -0.333902,-0.2225 -0.10309,-0.0884 -0.199526,-0.18259 -0.287414,-0.2833 -0.09605,-0.10929 -0.187711,-0.22166 -0.270484,-0.33947 -0.08958,-0.12832 -0.176597,-0.25804 -0.257253,-0.39093 -0.08614,-0.14547 -0.168467,-0.29269 -0.24198,-0.44366 -0.0835,-0.16357 -0.166595,-0.32731 -0.242523,-0.49383 -0.08418,-0.1805 -0.170688,-0.36014 -0.261483,-0.53808 -0.100891,-0.19818 -0.204466,-0.39525 -0.308193,-0.59227 -0.111499,-0.21544 -0.223033,-0.43095 -0.342084,-0.64319 -0.125574,-0.22368 -0.250629,-0.44795 -0.39424,-0.66299 -0.146564,-0.21475 -0.302388,-0.42469 -0.480615,-0.6198 -0.178726,-0.19259 -0.367577,-0.37844 -0.586618,-0.5356 -0.216772,-0.15257 -0.445252,-0.29097 -0.692008,-0.40244 -0.24525,-0.11077 -0.49618,-0.21328 -0.763132,-0.27541 -0.549078,-0.12142 -1.791857,-0.1394 0.582408,-0.0899 -0.242518,-0.004 -0.48483,0.0133 -0.719399,0.0723 -0.203123,0.0535 -0.40259,0.11692 -0.568586,0.23898 -0.148431,0.108 -0.289133,0.22528 -0.399741,0.36588 -0.09953,0.12943 -0.184465,0.2669 -0.259886,0.40875 -0.07142,0.13431 -0.139291,0.2703 -0.194105,0.41086 -0.03183,0.0848 -0.06479,0.16945 -0.09123,0.25572 0,0 -1.400724,-0.0424 -1.400724,-0.0424 z m -5.748909,7.42111 c -0.04575,-0.0797 -0.09154,-0.15944 -0.137267,-0.23921 -0.07705,-0.13487 -0.144497,-0.276 -0.208142,-0.41904 -0.06765,-0.1516 -0.124659,-0.30874 -0.170499,-0.47068 -0.04943,-0.1814 -0.06155,-0.37305 -0.06091,-0.56583 -0.0011,-0.2148 0.05703,-0.42395 0.135686,-0.6298 0.09055,-0.22828 0.222204,-0.43767 0.368546,-0.63663 0.445329,-0.60802 0.852397,-1.1663 1.437078,-1.60261 0.224523,-0.16363 0.467956,-0.29112 0.71343,-0.41064 0.248215,-0.12111 0.506115,-0.20809 0.767191,-0.27683 0.267078,-0.0673 0.536823,-0.0946 0.805271,-0.11023 0.268676,-0.0141 0.534751,-0.002 0.798619,0.0206 0.260044,0.0252 0.516144,0.0683 0.772295,0.11014 0.241461,0.0399 0.480915,0.0871 0.720306,0.13444 0.219666,0.0403 0.438889,0.0821 0.657297,0.12678 0.197323,0.0399 0.393261,0.0844 0.588256,0.1318 0.176707,0.0432 0.355781,0.0785 0.534771,0.11424 0.16168,0.0366 0.326947,0.0602 0.492578,0.0817 0.152308,0.0161 0.305288,0.0291 0.459174,0.0361 0.140415,0.007 0.282073,5.9e-4 0.423931,-0.008 0.128953,-0.008 0.257492,-0.0296 0.385473,-0.0595 0.123713,-0.033 0.243042,-0.0841 0.362003,-0.13569 0.112823,-0.0519 0.221131,-0.11445 0.328057,-0.17966 0.105202,-0.0636 0.198115,-0.14486 0.289819,-0.22796 0.09595,-0.0882 0.184556,-0.18506 0.270071,-0.28379 0.01427,-0.0166 0.02894,-0.033 0.04418,-0.0488 0.05629,-0.064 0.03213,-0.0338 0.08498,-0.0998 0.01356,-0.0169 0.05423,-0.0675 0.04069,-0.0506 -0.840808,1.04978 -1.088009,1.36637 -0.779334,0.97094 0.08178,-0.10342 0.157484,-0.21126 0.228707,-0.32205 0.07212,-0.11256 0.141461,-0.22677 0.209095,-0.34188 0.03395,-0.0568 0.06356,-0.1161 0.09392,-0.17486 0,0 0.990849,-0.97458 0.990849,-0.97458 -0.02856,0.0607 -0.05874,0.12049 -0.08921,0.18034 -0.06359,0.11823 -0.134875,0.23214 -0.203513,0.34771 -0.07134,0.11158 -0.141935,0.22384 -0.220702,0.33077 -0.35473,0.47093 -0.718959,0.93661 -1.112225,1.37583 -0.09143,0.096 -0.182987,0.19207 -0.285189,0.27596 -0.09818,0.0808 -0.201521,0.15393 -0.311172,0.21535 -0.111697,0.0631 -0.225307,0.12235 -0.343005,0.16965 -0.125049,0.0506 -0.252149,0.0963 -0.382143,0.12233 -0.133359,0.0255 -0.267158,0.0421 -0.400691,0.0481 -0.145333,0.007 -0.290339,0.009 -0.434054,-1.8e-4 -0.156177,-0.01 -0.311854,-0.0228 -0.466037,-0.0426 -0.167446,-0.0233 -0.333874,-0.0508 -0.497738,-0.0874 -0.179942,-0.0367 -0.359771,-0.0738 -0.537301,-0.11828 -0.193607,-0.0467 -0.387996,-0.0911 -0.583726,-0.13106 -0.217846,-0.0447 -0.436501,-0.0866 -0.655212,-0.12832 -0.237951,-0.0471 -0.475987,-0.0943 -0.716147,-0.13356 -0.253179,-0.0413 -0.506487,-0.0833 -0.764155,-0.10515 -0.259279,-0.0193 -0.520566,-0.0284 -0.784238,-0.0107 -0.262006,0.0197 -0.525051,0.0514 -0.784495,0.1247 -0.254437,0.0743 -0.505102,0.16669 -0.746099,0.29011 -0.239516,0.12268 -0.476115,0.25495 -0.691129,0.42493 -0.437279,0.35358 -1.226194,1.31401 0.292845,-0.51139 -0.154631,0.18687 -0.291932,0.38731 -0.392028,0.60751 -0.08483,0.19215 -0.159597,0.38766 -0.167662,0.59354 -0.0081,0.18339 -0.0041,0.36651 0.03682,0.54065 0.03913,0.15852 0.09366,0.31063 0.157534,0.45804 0.06048,0.13958 0.124485,0.27743 0.200207,0.40793 0.04641,0.0777 0.09208,0.15631 0.143049,0.23076 0,0 -0.906474,1.06871 -0.906474,1.06871 z m 2.21767,9.12166 c -0.09082,-0.0139 -0.181726,-0.0278 -0.272604,-0.0418 -0.153486,-0.0239 -0.305876,-0.0591 -0.457397,-0.0985 -0.160704,-0.0416 -0.319102,-0.095 -0.474293,-0.16016 -0.172645,-0.0745 -0.330039,-0.18447 -0.480361,-0.30517 -0.168625,-0.13306 -0.295896,-0.30891 -0.4078,-0.49876 -0.122017,-0.21313 -0.203635,-0.44661 -0.267946,-0.68507 -0.197717,-0.72727 -0.380396,-1.39361 -0.356971,-2.12277 0.01206,-0.27756 0.06416,-0.54737 0.123767,-0.81381 0.06007,-0.26957 0.152868,-0.52543 0.261902,-0.77241 0.113894,-0.25078 0.26076,-0.47867 0.415895,-0.69832 0.156505,-0.21884 0.331765,-0.41939 0.514027,-0.61155 0.181874,-0.18757 0.37518,-0.36097 0.56763,-0.53513 0.181703,-0.16394 0.367945,-0.32168 0.554209,-0.47934 0.168463,-0.14662 0.33782,-0.29196 0.508943,-0.43484 0.154227,-0.1294 0.311198,-0.25483 0.469815,-0.37775 0.143937,-0.11123 0.283232,-0.22919 0.422745,-0.34687 0.129404,-0.1036 0.25088,-0.21811 0.371015,-0.33415 0.107526,-0.10906 0.213075,-0.22056 0.314511,-0.33649 0.09277,-0.10562 0.176334,-0.22017 0.257696,-0.33673 0.0744,-0.1056 0.13741,-0.21976 0.19382,-0.33847 0.05135,-0.11728 0.08577,-0.24246 0.119622,-0.36762 0.0298,-0.12055 0.04839,-0.24425 0.06408,-0.3685 0.01585,-0.12193 0.01026,-0.24522 0.0025,-0.36872 -0.0092,-0.13003 -0.02962,-0.25968 -0.05349,-0.3881 -0.0041,-0.0215 -0.0077,-0.0432 -0.01063,-0.065 -0.01491,-0.0839 -0.0064,-0.0462 -0.02506,-0.12868 -0.0047,-0.0211 -0.01898,-0.0845 -0.01421,-0.0634 0.296512,1.3119 0.389908,1.70256 0.2732,1.21468 -0.02987,-0.12842 -0.06698,-0.25484 -0.109194,-0.37961 -0.04303,-0.12656 -0.08909,-0.25198 -0.136922,-0.37663 -0.02327,-0.062 -0.05114,-0.12208 -0.07815,-0.18245 0,0 -0.144168,-1.38232 -0.144168,-1.38232 0.02963,0.0602 0.05757,0.12104 0.08537,0.18219 0.05278,0.12343 0.0974,0.25018 0.14496,0.3759 0.04276,0.12535 0.08651,0.25053 0.121004,0.37879 0.147018,0.57096 0.284005,1.14607 0.382205,1.72739 0.01808,0.13136 0.03608,0.26282 0.03794,0.39502 0.0019,0.12713 -0.0053,0.25353 -0.02565,0.37756 -0.02031,0.12667 -0.04482,0.25243 -0.08123,0.37394 -0.03836,0.12935 -0.08194,0.25716 -0.142622,0.37504 -0.06321,0.12017 -0.133614,0.23516 -0.212239,0.34325 -0.08518,0.11796 -0.174336,0.23233 -0.270773,0.33924 -0.105169,0.11589 -0.212279,0.22959 -0.323886,0.3378 -0.122658,0.11635 -0.247867,0.22937 -0.378688,0.33463 -0.14089,0.1178 -0.282033,0.23525 -0.427481,0.34633 -0.157244,0.12224 -0.313135,0.24655 -0.466412,0.37467 -0.170758,0.14246 -0.339841,0.28729 -0.508842,0.43225 -0.185222,0.15665 -0.370514,0.31334 -0.550937,0.47663 -0.190135,0.1722 -0.38095,0.34403 -0.558646,0.53189 -0.176751,0.19067 -0.346746,0.38931 -0.497313,0.60648 -0.14799,0.2171 -0.287152,0.44257 -0.391632,0.69109 -0.100506,0.24529 -0.184601,0.49884 -0.238362,0.76421 -0.05342,0.26375 -0.09753,0.5312 -0.09869,0.80529 0.0038,0.56233 0.262818,1.77795 -0.217237,-0.54781 0.0497,0.23741 0.120798,0.46973 0.230548,0.68528 0.09734,0.18613 0.203576,0.36648 0.359515,0.50115 0.13832,0.12068 0.28397,0.23176 0.445655,0.30831 0.148328,0.0682 0.301258,0.12044 0.456327,0.16241 0.146834,0.0397 0.294522,0.0756 0.44376,0.0978 0.08971,0.0122 0.179618,0.0255 0.269607,0.032 0,0 0.27037,1.37504 0.27037,1.37504 z m 8.514297,3.95342 c -0.0675,0.0623 -0.135067,0.12472 -0.202664,0.18705 -0.114343,0.10513 -0.236925,0.20229 -0.362222,0.29617 -0.132748,0.0997 -0.273255,0.19024 -0.420935,0.27096 -0.165859,0.0886 -0.350003,0.14302 -0.538095,0.18529 -0.209164,0.0489 -0.426003,0.0387 -0.644203,0.008 -0.242704,-0.0375 -0.476134,-0.11924 -0.70267,-0.21764 -0.691877,-0.29887 -1.326743,-0.5715 -1.882214,-1.04443 -0.209487,-0.18249 -0.387955,-0.39145 -0.559094,-0.60417 -0.173311,-0.21504 -0.315493,-0.44712 -0.440606,-0.68636 -0.125054,-0.2454 -0.21166,-0.50232 -0.286659,-0.76055 -0.07352,-0.25881 -0.121045,-0.52087 -0.157637,-0.78318 -0.03325,-0.25914 -0.0483,-0.51839 -0.06447,-0.77744 -0.01488,-0.24427 -0.0221,-0.48824 -0.02922,-0.73216 -0.0096,-0.22312 -0.01764,-0.44615 -0.02266,-0.66903 -0.005,-0.20125 -0.0052,-0.40218 -0.0024,-0.60283 0.0028,-0.18189 -0.0026,-0.36434 -0.0076,-0.54679 -3.15e-4,-0.16576 -0.0141,-0.33213 -0.02993,-0.49841 -0.01823,-0.15207 -0.03959,-0.30411 -0.06698,-0.4557 -0.02473,-0.13838 -0.06219,-0.27513 -0.10259,-0.41141 -0.03618,-0.12402 -0.08615,-0.24446 -0.143784,-0.36257 -0.05968,-0.11327 -0.136094,-0.21823 -0.212835,-0.32274 -0.07567,-0.0984 -0.160794,-0.19011 -0.248158,-0.27985 -0.08544,-0.0884 -0.185319,-0.16091 -0.286734,-0.23183 -0.10737,-0.0739 -0.221494,-0.13874 -0.336774,-0.20015 -0.01938,-0.0102 -0.03859,-0.0209 -0.05743,-0.0322 -0.07487,-0.0406 -0.04007,-0.0238 -0.116224,-0.0606 -0.01947,-0.009 -0.0779,-0.0378 -0.05841,-0.0284 1.210553,0.58613 1.574218,0.75668 1.120009,0.54374 -0.119024,-0.0567 -0.241002,-0.10653 -0.364868,-0.15131 -0.12578,-0.0453 -0.252557,-0.0875 -0.379834,-0.12778 -0.06298,-0.0205 -0.127337,-0.0361 -0.191377,-0.0526 0,0 -1.170624,-0.74915 -1.170624,-0.74915 0.06551,0.0144 0.130532,0.0305 0.195669,0.0469 0.129416,0.0357 0.256331,0.0798 0.384276,0.12104 0.124657,0.0447 0.249806,0.0886 0.371591,0.14156 0.538058,0.24104 1.073107,0.49252 1.588827,0.77819 0.11398,0.0678 0.227973,0.13566 0.332499,0.21663 0.100608,0.0778 0.19491,0.16222 0.279195,0.25545 0.08637,0.0949 0.169417,0.19243 0.241717,0.29666 0.07721,0.11064 0.149967,0.2244 0.204296,0.34534 0.05454,0.12434 0.100544,0.25108 0.136033,0.37995 0.03912,0.14014 0.07295,0.28115 0.09641,0.42321 0.02503,0.15448 0.04715,0.30911 0.06216,0.46383 0.01449,0.16845 0.02479,0.3368 0.02552,0.50471 0.0043,0.1836 0.0081,0.36718 0.0042,0.55016 -0.0025,0.19915 -0.0025,0.39854 0.0021,0.59825 0.0049,0.22233 0.01273,0.44482 0.0207,0.66734 0.007,0.24247 0.01396,0.48504 0.02914,0.72791 0.01609,0.25602 0.03145,0.51233 0.06753,0.76839 0.03887,0.25708 0.08818,0.51383 0.164099,0.76695 0.07747,0.25107 0.166979,0.50045 0.296139,0.73708 0.129107,0.23152 0.274908,0.45535 0.448865,0.66284 0.1729,0.20621 0.354503,0.40745 0.568063,0.57924 0.442017,0.34764 1.553922,0.90306 -0.563735,-0.1717 0.216602,0.10917 0.442564,0.19843 0.679517,0.24701 0.206213,0.04 0.413452,0.0693 0.615969,0.0314 0.180592,-0.0329 0.358246,-0.0775 0.518904,-0.15621 0.14583,-0.0734 0.282001,-0.16043 0.411496,-0.2555 0.122621,-0.09 0.242778,-0.1831 0.353152,-0.28596 0.06545,-0.0625 0.131899,-0.12456 0.193146,-0.19082 0,0 1.24362,0.64594 1.24362,0.64594 z m 8.399486,-4.19183 c 0.0066,0.0916 0.0133,0.18336 0.01989,0.27508 0.0109,0.15494 0.01044,0.31136 0.0057,0.46785 -0.0048,0.16594 -0.02164,0.33225 -0.0506,0.49804 -0.03418,0.18489 -0.106407,0.36282 -0.190633,0.53623 -0.0922,0.194 -0.235321,0.35721 -0.395508,0.50856 -0.180629,0.16638 -0.390094,0.29791 -0.608269,0.41367 -0.66504,0.35459 -1.274025,0.68096 -1.990111,0.82038 -0.273284,0.05 -0.547928,0.0592 -0.820946,0.0604 -0.276184,0.001 -0.546281,-0.0321 -0.811328,-0.0834 -0.269834,-0.0552 -0.524696,-0.14771 -0.773353,-0.25008 -0.248179,-0.10389 -0.482707,-0.23012 -0.710598,-0.36506 -0.223337,-0.13557 -0.435411,-0.28545 -0.648025,-0.43432 -0.200259,-0.14066 -0.395496,-0.28714 -0.590643,-0.43365 -0.18043,-0.13161 -0.359811,-0.26438 -0.537194,-0.39942 -0.160469,-0.12157 -0.317687,-0.24669 -0.472816,-0.37398 -0.140471,-0.11558 -0.28647,-0.22513 -0.432243,-0.33496 -0.129797,-0.1031 -0.268468,-0.19605 -0.408337,-0.28735 -0.130252,-0.0806 -0.26244,-0.15866 -0.398039,-0.23175 -0.123611,-0.0669 -0.253882,-0.12293 -0.385624,-0.17631 -0.119512,-0.049 -0.244831,-0.0851 -0.373115,-0.11364 -0.12577,-0.024 -0.255472,-0.0297 -0.385024,-0.0348 -0.124153,-0.002 -0.248894,0.007 -0.373523,0.0195 -0.12239,0.0117 -0.24135,0.0446 -0.360024,0.0796 -0.124727,0.0379 -0.246578,0.0867 -0.366459,0.13851 -0.02007,0.009 -0.04038,0.0171 -0.06099,0.0248 -0.07846,0.0332 -0.0436,0.0165 -0.119873,0.0531 -0.01954,0.009 -0.07815,0.0373 -0.05863,0.028 1.213022,-0.581 1.573108,-0.75899 1.123428,-0.53664 -0.118552,0.0577 -0.233549,0.122 -0.345791,0.19092 -0.11381,0.0701 -0.225841,0.14293 -0.336722,0.2173 -0.05526,0.0365 -0.107641,0.077 -0.160489,0.1168 0,0 -1.315575,0.44814 -1.315575,0.44814 0.05206,-0.0423 0.105195,-0.0831 0.15862,-0.12377 0.108594,-0.0789 0.22224,-0.15063 0.334224,-0.22497 0.112687,-0.0696 0.224997,-0.14009 0.342362,-0.20226 0.52393,-0.27038 1.054139,-0.53191 1.599031,-0.757 0.124051,-0.0469 0.248202,-0.0937 0.376679,-0.12489 0.123512,-0.0302 0.248351,-0.0513 0.373795,-0.059 0.128013,-0.008 0.256079,-0.0125 0.382643,-0.004 0.134644,0.009 0.268949,0.0227 0.397374,0.0556 0.13122,0.0349 0.258991,0.0779 0.381871,0.13053 0.133957,0.0568 0.265297,0.11827 0.390988,0.1885 0.136385,0.0767 0.27107,0.15587 0.401396,0.2406 0.140731,0.0937 0.278778,0.19061 0.410512,0.29473 0.146197,0.11114 0.292111,0.22261 0.43277,0.3397 0.15416,0.1261 0.310047,0.25042 0.469056,0.37134 0.176886,0.13478 0.35571,0.2674 0.534649,0.3999 0.19393,0.14572 0.387927,0.2915 0.587274,0.43107 0.210192,0.14704 0.420167,0.29484 0.642861,0.42628 0.225226,0.12989 0.456705,0.25142 0.70194,0.34989 0.244588,0.096 0.495372,0.18147 0.760911,0.22803 0.261501,0.0434 0.527406,0.069 0.798089,0.0623 0.269025,-0.007 0.539583,-0.0231 0.807054,-0.083 0.547387,-0.12884 1.674891,-0.65186 -0.485729,0.33368 0.220401,-0.10128 0.431071,-0.22229 0.616795,-0.37725 0.159803,-0.13632 0.311991,-0.28002 0.408587,-0.46202 0.08687,-0.1617 0.162755,-0.32842 0.201407,-0.50308 0.03352,-0.1598 0.05039,-0.32051 0.0568,-0.48103 0.0061,-0.152 0.0082,-0.30397 -0.0034,-0.4544 -0.0081,-0.0902 -0.01514,-0.18078 -0.02876,-0.26998 0,0 1.280398,-0.56956 1.280398,-0.56956 z m 1.95969,-9.18054 c 0.07579,0.0519 0.151651,0.10392 0.227461,0.15596 0.127938,0.0881 0.249939,0.18597 0.369346,0.28723 0.126726,0.10724 0.246269,0.22408 0.357833,0.35009 0.12324,0.142 0.217315,0.3094 0.300381,0.48337 0.09419,0.19305 0.132562,0.4067 0.151012,0.62631 0.01746,0.24495 -0.01031,0.49073 -0.05583,0.73348 -0.137415,0.74103 -0.261941,1.42065 -0.599415,2.06743 -0.131291,0.24484 -0.295299,0.46533 -0.464609,0.67952 -0.171084,0.21681 -0.365708,0.40707 -0.571103,0.58228 -0.211423,0.17653 -0.442625,0.31813 -0.677696,0.44871 -0.235958,0.12927 -0.480881,0.23392 -0.728464,0.32796 -0.245246,0.0901 -0.494647,0.16245 -0.743602,0.23585 -0.234838,0.0689 -0.471082,0.13019 -0.707303,0.19141 -0.215395,0.059 -0.431041,0.11647 -0.647214,0.17096 -0.195096,0.0497 -0.390945,0.0946 -0.587185,0.13649 -0.177944,0.0378 -0.354626,0.0836 -0.531381,0.1291 -0.161539,0.0372 -0.32067,0.0877 -0.479258,0.14008 -0.144197,0.0516 -0.28767,0.10627 -0.429363,0.16671 -0.12941,0.0549 -0.254397,0.12185 -0.378275,0.19157 -0.112853,0.0629 -0.219154,0.13838 -0.321483,0.22086 -0.09715,0.0834 -0.182474,0.18124 -0.267282,0.27931 -0.07915,0.0957 -0.149571,0.19907 -0.217617,0.30421 -0.06718,0.10297 -0.115639,0.21648 -0.16221,0.33113 -0.04816,0.12112 -0.08598,0.24682 -0.120192,0.37287 -0.0056,0.0212 -0.01177,0.0423 -0.01863,0.0632 -0.02296,0.082 -0.0143,0.0444 -0.03325,0.1268 -0.0049,0.0211 -0.01956,0.0844 -0.0147,0.0633 0.302062,-1.31063 0.387417,-1.70313 0.280883,-1.21292 -0.02881,0.12866 -0.05023,0.25866 -0.06632,0.38939 -0.01614,0.1327 -0.02906,0.26568 -0.04005,0.39874 -0.0059,0.0659 -0.0069,0.13219 -0.0087,0.1983 0,0 -0.469872,1.30797 -0.469872,1.30797 -5.92e-4,-0.0671 6.45e-4,-0.13403 0.0021,-0.20119 0.006,-0.13411 0.0208,-0.26766 0.03249,-0.40157 0.01586,-0.13148 0.03076,-0.26325 0.05533,-0.39378 0.115272,-0.5782 0.241381,-1.15579 0.405131,-1.72215 0.04071,-0.1262 0.08153,-0.25245 0.137213,-0.37237 0.05341,-0.11538 0.114777,-0.22612 0.186919,-0.32904 0.07326,-0.10531 0.149909,-0.20799 0.235431,-0.30167 0.09069,-0.0999 0.185406,-0.19614 0.291222,-0.27601 0.109085,-0.0808 0.222412,-0.1539 0.340151,-0.21717 0.127923,-0.0693 0.257875,-0.13368 0.391149,-0.18817 0.145036,-0.0588 0.290872,-0.11474 0.438374,-0.16381 0.160996,-0.0516 0.322842,-0.0991 0.48638,-0.13719 0.178048,-0.045 0.356174,-0.0896 0.535414,-0.12655 0.194707,-0.0419 0.389098,-0.0863 0.582782,-0.1352 0.215659,-0.0543 0.430838,-0.11138 0.646001,-0.16867 0.234844,-0.0608 0.469773,-0.12154 0.703179,-0.19038 0.24602,-0.0726 0.49249,-0.14467 0.734099,-0.23683 0.241978,-0.0951 0.481322,-0.20031 0.711207,-0.33065 0.227531,-0.13139 0.450739,-0.27415 0.652701,-0.45273 0.196979,-0.17738 0.382757,-0.36933 0.546335,-0.5851 0.162569,-0.21445 0.318347,-0.43628 0.438318,-0.68272 0.240563,-0.50829 0.534633,-1.71591 -0.04196,0.58781 0.05823,-0.23546 0.09497,-0.47562 0.08961,-0.71744 -0.0069,-0.20993 -0.02441,-0.41852 -0.10647,-0.60751 -0.07226,-0.16874 -0.155293,-0.33202 -0.267753,-0.47114 -0.104032,-0.12583 -0.219164,-0.23923 -0.340668,-0.34432 -0.115049,-0.0995 -0.232531,-0.19595 -0.357374,-0.28067 -0.07554,-0.0499 -0.150783,-0.10087 -0.229006,-0.14584 0,0 0.353011,-1.35617 0.353011,-1.35617 z m -5.955792,-7.25613 c 0.08786,-0.0269 0.175806,-0.0538 0.263753,-0.0806 0.148634,-0.0451 0.301232,-0.0795 0.454854,-0.10968 0.162854,-0.0322 0.328734,-0.0528 0.496814,-0.0615 0.187856,-0.008 0.377396,0.023 0.565201,0.0665 0.209658,0.0467 0.400624,0.14993 0.583818,0.27243 0.202405,0.13907 0.377243,0.31402 0.538651,0.50097 0.493687,0.56946 0.947391,1.09055 1.242654,1.75766 0.109565,0.2553 0.179695,0.521 0.241588,0.78692 0.06284,0.26894 0.09025,0.53973 0.09917,0.80955 0.0062,0.27536 -0.02725,0.54441 -0.07172,0.80961 -0.04606,0.26508 -0.116941,0.52182 -0.197781,0.77402 -0.08248,0.2479 -0.181405,0.48801 -0.279233,0.72842 -0.09258,0.22654 -0.191932,0.44948 -0.291348,0.67233 -0.08816,0.2052 -0.177689,0.40962 -0.269869,0.61261 -0.08281,0.18349 -0.169813,0.36461 -0.259392,0.54418 -0.08142,0.16266 -0.155741,0.32938 -0.230378,0.49594 -0.07164,0.14949 -0.131401,0.30536 -0.189288,0.46204 -0.04956,0.14491 -0.09628,0.29116 -0.137368,0.43963 -0.03776,0.13541 -0.06334,0.27487 -0.08608,0.41519 -0.02121,0.12742 -0.02845,0.25762 -0.02777,0.38904 0.0046,0.12795 0.02793,0.25567 0.05173,0.38312 0.02546,0.12154 0.06238,0.24106 0.102158,0.35981 0.03862,0.11673 0.09715,0.22539 0.157752,0.33328 0.06467,0.11318 0.13936,0.22111 0.216582,0.32645 0.01303,0.0176 0.02571,0.0356 0.03777,0.0539 0.04982,0.0691 0.02577,0.0388 0.07841,0.10505 0.01343,0.017 0.05376,0.0679 0.0403,0.0509 -0.836358,-1.05332 -1.090007,-1.36478 -0.773172,-0.97585 0.08263,0.10274 0.170915,0.20055 0.263084,0.29464 0.09368,0.0953 0.189601,0.18837 0.286778,0.27993 0.04787,0.0457 0.09905,0.0878 0.149579,0.13047 0,0 0.729654,1.18287 0.729654,1.18287 -0.0528,-0.0413 -0.10439,-0.0841 -0.155967,-0.1271 -0.101113,-0.0883 -0.196306,-0.18315 -0.293704,-0.27578 -0.09291,-0.0944 -0.186639,-0.18819 -0.273369,-0.28878 -0.380189,-0.45062 -0.753141,-0.90934 -1.093841,-1.39049 -0.07329,-0.11051 -0.146536,-0.22113 -0.205578,-0.33944 -0.05691,-0.1137 -0.105225,-0.23072 -0.14071,-0.35129 -0.03666,-0.12294 -0.06915,-0.24688 -0.08907,-0.37216 -0.02156,-0.13318 -0.03775,-0.26725 -0.03423,-0.39978 0.0048,-0.13569 0.01835,-0.26984 0.04229,-0.40134 0.02556,-0.14324 0.05627,-0.28496 0.09677,-0.42313 0.04447,-0.15004 0.09164,-0.29896 0.145247,-0.44487 0.06003,-0.15805 0.123799,-0.31421 0.195994,-0.46581 0.07583,-0.16726 0.152031,-0.33432 0.23488,-0.49751 0.08864,-0.17835 0.175151,-0.35799 0.257662,-0.53992 0.09204,-0.20244 0.181536,-0.40629 0.270901,-0.61023 0.09892,-0.2215 0.19787,-0.44307 0.289576,-0.66847 0.09659,-0.23765 0.193957,-0.47525 0.272546,-0.7216 0.07652,-0.24849 0.143493,-0.5012 0.18492,-0.7622 0.03914,-0.25981 0.06669,-0.52333 0.05299,-0.79258 -0.01587,-0.2646 -0.05012,-0.52953 -0.11682,-0.79195 -0.0663,-0.26081 -0.142612,-0.52091 -0.260481,-0.76835 -0.24741,-0.505 -1.008215,-1.48785 0.433406,0.3993 -0.147785,-0.19234 -0.312642,-0.3708 -0.505047,-0.51739 -0.168461,-0.12546 -0.342426,-0.24186 -0.541353,-0.29553 -0.176983,-0.0487 -0.356403,-0.0856 -0.53529,-0.0844 -0.163246,0.003 -0.323684,0.0222 -0.481606,0.0517 -0.149536,0.0279 -0.298178,0.0596 -0.442252,0.10441 -0.08611,0.028 -0.172879,0.055 -0.256809,0.0881 0,0 -0.840201,-1.12156 -0.840201,-1.12156 z"
       inkscape:connector-curvature="0"
       inkscape:path-effect="#path-effect836"
       inkscape:original-d="m 56.092442,227.46213 c 0.03364,-0.0855 0.06731,-0.17108 0.101035,-0.25662 0.05718,-0.14442 0.125247,-0.28525 0.197186,-0.42431 0.07612,-0.14753 0.163203,-0.29021 0.261019,-0.42717 0.110776,-0.15192 0.252851,-0.28111 0.403789,-0.40104 0.167033,-0.13505 0.366664,-0.22031 0.576549,-0.28749 0.23482,-0.0719 0.480565,-0.0999 0.727346,-0.10992 0.752983,-0.0321 1.443221,-0.063 2.149169,0.12099 0.268032,0.0731 0.519663,0.18354 0.766334,0.30056 0.249635,0.11816 0.478662,0.26521 0.695436,0.42613 0.219406,0.1665 0.409208,0.3601 0.589135,0.55994 0.178841,0.201 0.335707,0.41625 0.482827,0.63647 0.142737,0.21883 0.269135,0.44568 0.396453,0.67186 0.119727,0.21344 0.232416,0.42994 0.345005,0.64644 0.105764,0.1967 0.210081,0.39399 0.311617,0.59246 0.09211,0.17901 0.179752,0.35982 0.264573,0.54168 0.07667,0.16496 0.160929,0.32688 0.244866,0.48895 0.07244,0.1491 0.157273,0.29288 0.243899,0.43569 0.0826,0.12897 0.168013,0.25655 0.258663,0.3811 0.0825,0.11382 0.17575,0.22063 0.271446,0.32574 0.08655,0.0959 0.183963,0.18258 0.287269,0.26383 0.103036,0.076 0.217517,0.13723 0.332096,0.19791 0.110979,0.0557 0.227517,0.10117 0.345231,0.14393 0.115404,0.0424 0.236884,0.0642 0.359055,0.0839 0.128835,0.0198 0.259805,0.0285 0.390318,0.0336 0.02189,7.6e-4 0.04383,0.002 0.06573,0.004 0.0851,0.004 0.04644,0.004 0.13103,0.004 0.02165,5e-5 0.0866,1.6e-4 0.06495,1.5e-4 -1.344986,-7.5e-4 -1.74663,0.004 -1.245018,-0.002 0.131843,-7.5e-4 0.263342,-0.009 0.394351,-0.0226 0.132941,-0.014 0.265443,-0.0312 0.397581,-0.0503 0.0656,-0.009 0.130367,-0.0229 0.195215,-0.0359 0,0 1.379995,0.16489 1.379995,0.16489 v 0 c -0.06522,0.0156 -0.130773,0.0294 -0.196549,0.043 -0.132048,0.0242 -0.265525,0.0397 -0.398647,0.0583 -0.131694,0.014 -0.263451,0.029 -0.396161,0.0343 -0.589333,0.0172 -1.180497,0.0237 -1.769144,-0.009 -0.132115,-0.0114 -0.264293,-0.0229 -0.393643,-0.0503 -0.124418,-0.0262 -0.246087,-0.0612 -0.362551,-0.10845 -0.11905,-0.0478 -0.236288,-0.0995 -0.346747,-0.16186 -0.117674,-0.066 -0.232694,-0.13675 -0.334248,-0.22198 -0.103228,-0.0882 -0.199811,-0.18228 -0.287856,-0.28285 -0.09622,-0.10914 -0.188056,-0.22137 -0.271012,-0.33905 -0.08978,-0.12818 -0.176999,-0.25777 -0.257862,-0.39053 -0.08637,-0.14534 -0.168923,-0.29243 -0.242671,-0.44328 -0.08375,-0.16344 -0.167105,-0.32705 -0.243293,-0.49345 -0.08446,-0.18037 -0.171249,-0.35988 -0.262321,-0.53768 -0.1012,-0.19802 -0.205082,-0.39493 -0.309116,-0.59179 -0.111834,-0.21526 -0.223704,-0.4306 -0.343085,-0.64265 -0.125923,-0.22349 -0.251327,-0.44756 -0.395273,-0.66238 -0.146899,-0.21452 -0.30305,-0.42421 -0.481581,-0.61905 -0.179026,-0.19231 -0.368166,-0.37786 -0.587452,-0.53468 -0.217009,-0.15223 -0.445704,-0.29028 -0.692634,-0.40136 -0.245422,-0.11039 -0.496512,-0.21251 -0.76356,-0.27422 -0.549267,-0.12057 -1.792072,-0.13661 0.582267,-0.0908 -0.242525,-0.004 -0.484809,0.014 -0.719285,0.0734 -0.20304,0.0538 -0.402408,0.11755 -0.568213,0.23987 -0.148263,0.10823 -0.288782,0.22573 -0.399171,0.3665 -0.09933,0.12958 -0.184048,0.26719 -0.259248,0.40915 -0.07121,0.13442 -0.13887,0.27052 -0.193465,0.41117 -0.0317,0.0848 -0.06453,0.16955 -0.09083,0.25586 0,0 -1.400789,-0.0402 -1.400789,-0.0402 z" />
  </g>
</svg>
