<?xml version="1.0" encoding="utf-8"?>
<!-- Generator: Adobe Illustrator 16.0.0, SVG Export Plug-In . SVG Version: 6.00 Build 0)  -->
<!DOCTYPE svg PUBLIC "-//W3C//DTD SVG 1.1//EN" "http://www.w3.org/Graphics/SVG/1.1/DTD/svg11.dtd">
<svg version="1.1" xmlns="http://www.w3.org/2000/svg" xmlns:xlink="http://www.w3.org/1999/xlink" x="0px" y="0px" width="800px"
	 height="800px" viewBox="0 0 800 800" enable-background="new 0 0 800 800" xml:space="preserve">
<g id="bg">
	<path fill="#FD6ACB" d="M800,692.897C800,752.049,752.049,800,692.897,800H107.103C47.951,800,0,752.049,0,692.897V107.103
		C0,47.951,47.951,0,107.103,0h585.795C752.049,0,800,47.951,800,107.103V692.897z"/>
</g>
<g id="rose">
	<path fill="#FFFFFF" d="M615.762,187.641c35.366,10.79,60.244,29.355,73.996,55.19c21.715,40.814,12.634,95.702-25.562,154.531
		c-18.612,28.702-42.969,56.496-71.874,82.354c16.296-32.738,25.477-69.65,25.477-108.663c0-78.264-36.882-148.078-94.202-192.968
		C557.423,176.313,588.746,179.384,615.762,187.641z M372.781,156.76c118.171,0,214.302,96.13,214.302,214.286
		c0,99.854-68.664,183.98-161.241,207.638c57.063-67.419,77.791-162.733,51.389-252.046c-13.56-45.978-39.036-87.08-72.971-118.512
		c-23.649-23.977-55.509-39.852-90.983-42.946C332.176,159.698,352.148,156.76,372.781,156.76z M300.503,195.306
		c50.564,0,93.588,32.809,108.966,78.233c-17.485-19.187-42.658-31.261-70.615-31.261c-52.664,0-95.516,42.845-95.516,95.501
		c0,39.19,23.712,72.916,57.522,87.625c-0.124,0-0.241,0.015-0.364,0.015c-63.447,0-115.054-51.613-115.054-115.052
		C185.45,246.928,237.056,195.306,300.503,195.306z M324.954,317.426c-22.057,0-41.104,13.053-49.851,31.836
		c-0.668-3.724-1.033-7.557-1.033-11.482c0-35.716,29.068-64.769,64.783-64.769c35.724,0,64.785,29.053,64.785,64.769
		c0,21.504-10.527,40.574-26.689,52.368c1.912-5.575,2.954-11.545,2.954-17.765C379.91,342.078,355.258,317.426,324.954,317.426z
		 M349.178,372.383c0,13.363-10.868,24.248-24.224,24.248c-13.365,0-24.241-10.876-24.241-24.248
		c0-13.356,10.876-24.226,24.241-24.226C338.31,348.157,349.178,359.026,349.178,372.383z M159.717,348.189
		c16.699,62.101,73.476,107.971,140.779,107.971c73.841,0,134.978-55.199,144.462-126.498c0.646,1.975,1.26,3.966,1.843,5.964
		c27.164,91.963-1.943,191-72.479,249.689c-0.514,0-1.026,0.016-1.547,0.016c-17.921,0-35.319-2.239-51.965-6.391
		c-5.753-1.609-11.443-3.281-17.096-5.038c-84.375-28.788-145.226-108.849-145.226-202.85
		C158.496,363.325,158.924,355.699,159.717,348.189z M238.013,624.195c-70.125-1.205-120.722-24.326-142.443-65.126
		c-13.752-25.843-15.245-56.862-4.462-92.197c7.44-24.356,20.291-49.259,37.667-73.747c8.482,94.544,70.871,173.766,156.133,206.619
		l-0.14,0.444c3.934,1.29,7.907,2.533,11.887,3.747c5.287,1.733,10.651,3.311,16.086,4.664c6.608,1.851,13.263,3.615,19.956,5.255
		C299.943,621.14,268.014,624.677,238.013,624.195z M722.598,483.587c-6.212,28.595-25.135,53.224-56.217,73.196
		c-49.406,31.767-122.703,47.051-203.812,44.313c9.679-4.555,19.327-9.391,28.904-14.467
		c85.246-45.38,155.737-106.674,198.526-172.538c4.362-6.708,8.389-13.395,12.066-20.089
		C721.882,424.969,728.771,455.103,722.598,483.587z"/>
</g>
<g id="bits" display="none">
	<text transform="matrix(1 0 0 1 108.3638 168.1699)" display="inline"><tspan x="0" y="0" fill="#FD6ACB" font-family="'Courier-Bold'" font-size="42">010100110010110101100111</tspan><tspan x="0" y="50.4" fill="#FD6ACB" font-family="'Courier-Bold'" font-size="42">110011100110011011100010</tspan><tspan x="0" y="100.8" fill="#FD6ACB" font-family="'Courier-Bold'" font-size="42">110 11001 1010 10110 110</tspan><tspan x="0" y="151.2" fill="#FD6ACB" font-family="'Courier-Bold'" font-size="42">01  1 1 0 0110 01 10 10 </tspan><tspan x="0" y="201.6" fill="#FD6ACB" font-family="'Courier-Bold'" font-size="42"> 0  0 0 1  0   1     0</tspan><tspan x="0" y="252" fill="#FD6ACB" font-family="'Courier-Bold'" font-size="42"> 1  0   0      0     1</tspan><tspan x="0" y="302.4" fill="#FD6ACB" font-family="'Courier-Bold'" font-size="42"> 0  1   1      1     </tspan><tspan x="0" y="352.8" fill="#FD6ACB" font-family="'Courier-Bold'" font-size="42"> 1      0      0     </tspan><tspan x="0" y="403.2" fill="#FD6ACB" font-family="'Courier-Bold'" font-size="42">        1</tspan></text>
</g>
<g id="librosa">
	<text transform="matrix(1 0 0 1 200.3682 745.2607)" fill="#FFFFFF" font-family="'Courier-Bold'" font-size="100">LibROSA</text>
</g>
<g id="wave" display="none">
	<line display="inline" fill="none" x1="985.458" y1="-311.881" x2="961.456" y2="33.153"/>
	<line display="inline" fill="#FFFFFF" x1="1048.465" y1="-311.881" x2="1048.465" y2="33.153"/>
	<g display="inline">
		<rect x="101.297" y="179.08" fill="#FD6ACB" width="30.003" height="42"/>
		<rect x="156.211" y="142.859" fill="#FD6ACB" width="30.002" height="111.221"/>
		<rect x="207.309" y="114.08" fill="#FD6ACB" width="30.002" height="158"/>
		<rect x="256.312" y="65.08" fill="#FD6ACB" width="30.003" height="253"/>
		<rect x="311.226" y="124.08" fill="#FD6ACB" width="30.002" height="134"/>
		<rect x="362.323" y="65.08" fill="#FD6ACB" width="30.002" height="253"/>
		<rect x="416.464" y="38.195" fill="#FD6ACB" width="30.003" height="299.985"/>
		<rect x="471.378" y="77.193" fill="#FD6ACB" width="30.002" height="230.988"/>
		<rect x="522.476" y="124.08" fill="#FD6ACB" width="30.002" height="134"/>
		<rect x="571.479" y="137.47" fill="#FD6ACB" width="30.003" height="111.221"/>
		<rect x="626.393" y="165.08" fill="#FD6ACB" width="30.002" height="63.521"/>
		<rect x="677.49" y="179.079" fill="#FD6ACB" width="30.002" height="42.001"/>
	</g>
</g>
<g id="Layer_6">
	<g>
		<path fill="none" stroke="#FD6ACB" stroke-width="14" d="M66.002,530.814L67,529.478l0.998-1.254l0.999-1.339l0.996-1.338
			l0.998-1.255l0.996-1.338l0.998-1.254l0.997-1.255l0.999-1.254l0.998-1.338l0.998-1.172l0.996-1.254l0.998-1.255l0.998-1.171
			l0.996-1.171l0.999-1.17l0.998-1.171l0.998-1.087l0.998-1.087l0.997-1.088l0.997-1.003l0.998-1.088l0.996-1.003l0.998-0.92
			l0.998-1.003l0.998-0.837l0.999-0.92l0.997-0.836l0.996-0.837l0.998-0.836l0.995-0.752l0.998-0.669l0.999-0.669l0.998-0.669
			l0.998-0.669l0.998-0.502l0.997-0.586l0.996-0.502l0.999-0.417l0.996-0.502l0.998-0.335l0.998-0.336l0.997-0.334l1-0.25
			l0.998-0.252l0.995-0.166l0.999-0.167l0.995-0.085l0.999-0.082h0.998h0.998l0.998,0.082l0.998,0.085l0.997,0.167l0.996,0.166
			l0.999,0.252l0.994,0.25l0.999,0.334l0.998,0.336l0.996,0.335l0.998,0.502l0.999,0.417l0.996,0.502l0.997,0.586l0.996,0.502
			l0.997,0.669l0.998,0.669l0.999,0.669l0.997,0.669l0.998,0.752l0.998,0.836l0.995,0.837l0.998,0.836l0.995,0.92l0.999,0.837
			l0.997,1.003l0.998,0.92l0.998,1.003l0.998,1.088l0.996,1.003l0.998,1.088l0.997,1.087l0.996,1.087l0.998,1.171l0.997,1.17
			l0.999,1.171l0.998,1.171l0.997,1.255l0.995,1.254l0.999,1.172l0.994,1.338l0.999,1.254l0.998,1.255l0.998,1.254l0.997,1.338
			l0.998,1.255l0.995,1.338l0.999,1.339l0.997,1.254l0.996,1.337l0.998,1.338l0.998,1.255l0.999,1.339l0.997,1.338l0.997,1.254
			l0.996,1.338l0.998,1.255l0.995,1.255l0.998,1.254l0.998,1.338l0.998,1.171l0.998,1.255l0.998,1.254l0.997,1.17l0.997,1.171
			l0.995,1.171l0.997,1.171l0.999,1.088l0.997,1.086l0.997,1.088l0.999,1.003l0.998,1.088l0.995,1.003l0.998,0.921l0.996,1.003
			l0.997,0.837l0.999,0.919l0.998,0.836l0.997,0.836l0.998,0.837l0.995,0.753l0.998,0.669l0.996,0.669l0.998,0.669l0.998,0.669
			l0.997,0.502l0.999,0.586l0.998,0.502l0.998,0.417l0.995,0.502l0.998,0.335l0.997,0.334l0.996,0.334l0.997,0.252l0.999,0.251
			l0.997,0.166l0.999,0.168l0.995,0.083l0.997,0.084h1h0.994l0.998-0.084l0.998-0.083l0.998-0.168l0.997-0.166l0.999-0.251
			l0.998-0.252l0.993-0.334l0.998-0.334l0.997-0.335l0.997-0.502l0.999-0.417l0.998-0.502l0.998-0.586l0.996-0.502l0.997-0.669
			l0.997-0.669l0.996-0.669l0.999-0.669l0.997-0.753l0.998-0.837l0.998-0.836l0.995-0.836l0.998-0.919l0.999-0.837l0.995-1.003
			l0.997-0.921l0.998-1.003l0.998-1.088l0.998-1.003l0.998-1.088l0.998-1.086l0.995-1.088l0.998-1.171l0.995-1.171l0.999-1.171
			l0.998-1.17l0.998-1.254l0.997-1.255l0.997-1.171l0.996-1.338l0.999-1.254l0.996-1.255l0.997-1.255l0.997-1.338l0.998-1.254
			l0.999-1.338l0.998-1.339l0.997-1.255l0.996-1.338"/>
		<path fill="none" stroke="#FD6ACB" stroke-width="14" d="M265.478,530.814l0.995-1.337l0.998-1.255l0.998-1.338l0.998-1.338
			l0.998-1.255l0.997-1.338l0.998-1.255l0.995-1.254l0.999-1.254l0.996-1.338l0.997-1.172l0.998-1.254l0.998-1.255l0.997-1.171
			l0.999-1.171l0.996-1.17l0.997-1.171l0.996-1.087l0.997-1.087l0.998-1.088l0.998-1.003l0.999-1.088l0.997-1.003l0.998-0.92
			l0.995-1.004l0.998-0.836l0.998-0.92l0.996-0.836l0.998-0.837l0.997-0.836l0.998-0.753l0.998-0.669l0.996-0.668l0.997-0.669
			l0.999-0.669l0.994-0.502l0.999-0.587l0.997-0.501l0.999-0.418l0.997-0.501l0.998-0.335l0.998-0.336l0.993-0.334l0.998-0.25
			l0.998-0.252l0.998-0.166l0.998-0.167l0.997-0.085l0.998-0.083h0.998h0.996l0.998,0.083l0.995,0.085l0.998,0.167l0.997,0.166
			l0.999,0.252l0.998,0.25l0.995,0.334l0.998,0.336l0.998,0.335l0.995,0.501l0.998,0.418l0.999,0.501l0.997,0.587l0.997,0.502
			l0.999,0.669l0.997,0.669l0.996,0.668l0.998,0.669l0.995,0.753l0.998,0.836l0.998,0.837l0.998,0.836l0.998,0.92l0.998,0.836
			l0.995,1.004l0.998,0.92l0.996,1.003l0.997,1.088l0.999,1.003l0.997,1.088l0.998,1.087l0.998,1.087l0.997,1.171l0.996,1.17
			l0.996,1.171l1,1.171l0.996,1.255l0.997,1.254l0.998,1.172l0.998,1.338l0.999,1.254l0.994,1.254l0.999,1.255l0.995,1.338
			l0.997,1.255l0.998,1.338l0.999,1.338l0.998,1.255l0.997,1.337l0.996,1.338l0.997,1.255l0.996,1.338l0.999,1.338l0.997,1.255
			l0.997,1.338l0.999,1.255l0.997,1.255l0.999,1.254l0.996,1.337l0.997,1.171l0.997,1.254l0.996,1.255l0.998,1.171l0.998,1.171
			l0.998,1.17l0.998,1.171l0.995,1.088l0.998,1.087l0.998,1.088l0.996,1.003l0.998,1.087l0.997,1.003l0.998,0.921l0.997,1.004
			l0.996,0.836l0.999,0.919l0.997,0.837l0.998,0.836l0.995,0.836l0.998,0.754l0.998,0.669l0.999,0.669l0.997,0.668l0.996,0.669
			l0.997,0.503l0.998,0.586l0.995,0.5l0.999,0.419l0.997,0.501l0.998,0.335l0.998,0.335l0.995,0.334l0.998,0.25l0.999,0.252
			l0.997,0.167l0.998,0.167l0.996,0.084l0.997,0.084h0.997h0.997l0.998-0.084l0.997-0.084l0.999-0.167l0.997-0.167l0.995-0.252
			l0.999-0.25l0.998-0.334l0.997-0.335l0.996-0.335l0.997-0.501l0.999-0.419l0.997-0.5l0.999-0.586l0.995-0.503l0.998-0.669
			l0.997-0.668l0.997-0.669l0.997-0.669l0.998-0.754l0.998-0.836l0.997-0.836l0.996-0.837l0.999-0.919l0.997-0.836l0.998-1.004
			l0.998-0.921l0.994-1.003l0.999-1.087l0.999-1.003l0.994-1.088l0.999-1.087l0.997-1.088l0.997-1.171l0.998-1.17l0.997-1.171
			l0.997-1.171l0.998-1.255l0.998-1.254l0.995-1.171l0.998-1.337l0.999-1.254l0.995-1.255l0.998-1.255l0.998-1.338l0.997-1.255
			l0.997-1.338l0.999-1.338l0.996-1.255l0.997-1.338"/>
		<path fill="none" stroke="#FD6ACB" stroke-width="14" d="M464.952,530.814l0.999-1.337l0.997-1.255l0.995-1.338l0.999-1.338
			l0.998-1.255l0.997-1.338l0.998-1.255l0.995-1.254l0.998-1.254l0.998-1.338l0.996-1.172l0.998-1.254l0.997-1.255l0.998-1.171
			l0.995-1.171l0.999-1.17l0.998-1.171l0.998-1.087l0.997-1.087l0.996-1.088l0.998-1.003l0.998-1.088l0.996-1.003l0.997-0.92
			l0.997-1.004l0.999-0.836l0.998-0.92l0.995-0.836l0.999-0.837l0.997-0.836l0.997-0.753l0.998-0.669l0.997-0.668l0.997-0.669
			l0.998-0.669l0.995-0.502l1-0.587l0.996-0.501l0.999-0.418l0.997-0.501l0.995-0.335l0.998-0.336l0.998-0.334l0.997-0.25
			l0.997-0.252l0.998-0.166l0.997-0.167l0.998-0.085l0.998-0.083h0.995h0.999l0.998,0.083l0.994,0.085l0.999,0.167l0.997,0.166
			l0.998,0.252l0.998,0.25l0.996,0.334l0.998,0.336l0.997,0.335l0.998,0.501l0.999,0.418l0.995,0.501l0.998,0.587l0.997,0.502
			l0.996,0.669l0.998,0.669l0.998,0.668l0.998,0.669l0.997,0.753l0.996,0.836l0.997,0.837l0.999,0.836l0.998,0.92l0.995,0.836
			l0.998,1.004l0.998,0.92l0.995,1.003l1,1.088l0.997,1.003l0.997,1.088l0.998,1.087l0.995,1.087l0.998,1.171l0.997,1.17l1,1.171
			l0.997,1.171l0.995,1.255l0.998,1.254l0.998,1.172l0.997,1.338l0.999,1.254l0.996,1.254l0.997,1.255l0.998,1.338l0.995,1.255
			l0.998,1.338l0.998,1.338l0.999,1.255l0.997,1.337l0.996,1.338l0.997,1.255l0.998,1.338l0.998,1.338l0.996,1.255l0.997,1.338
			l0.998,1.255l0.996,1.255l0.997,1.254l0.999,1.337l0.998,1.171l0.997,1.254l0.995,1.255l0.999,1.171l0.998,1.171l0.998,1.17
			l0.997,1.171l0.996,1.088l0.997,1.087l0.998,1.088l0.999,1.003l0.998,1.087l0.995,1.003l0.998,0.921l0.997,1.004l0.996,0.836
			l0.999,0.919l0.997,0.837l0.997,0.836l0.996,0.836l0.998,0.754l0.997,0.669l0.999,0.669l0.998,0.668l0.995,0.669l0.998,0.503
			l0.998,0.586l0.995,0.5l0.999,0.419l0.998,0.501l0.997,0.335l0.997,0.335l0.996,0.334l0.998,0.25l0.998,0.252l0.999,0.167
			l0.997,0.167l0.995,0.084l0.998,0.084h0.997h0.997l0.998-0.084l0.997-0.084l0.998-0.167l0.998-0.167l0.995-0.252l0.999-0.25
			l0.997-0.334l0.998-0.335l0.995-0.335l0.999-0.501l0.997-0.419l0.996-0.5l1-0.586l0.996-0.503l0.997-0.669l0.998-0.668
			l0.997-0.669l0.997-0.669l0.997-0.754l0.999-0.836l0.997-0.836l0.995-0.837l1-0.919l0.997-0.836l0.997-1.004l0.998-0.921
			l0.996-1.003l0.997-1.087l0.999-1.003l0.995-1.088l0.998-1.087l0.998-1.088l0.998-1.171l0.997-1.17l0.997-1.171l0.997-1.171
			l0.998-1.255l0.997-1.254l0.996-1.171l0.997-1.337l0.999-1.254l0.996-1.255l0.997-1.255l0.998-1.338l0.998-1.255l0.997-1.338
			l0.999-1.338l0.996-1.255l0.997-1.338"/>
	</g>
	<path fill="none" stroke="#FD6ACB" stroke-width="14" d="M660.473,535.881c8.896-11.725,17.125-24.683,29.132-33.54
		c13.217-9.75,27.604-8.616,41.063,0.193c11.638,7.618,19.934,19.143,27.73,30.416c8.327,12.041,16.465,23.748,27.508,33.51"/>
</g>
</svg>
