<svg height='100px' width='100px'  fill="#000000" xmlns="http://www.w3.org/2000/svg" version="1.0" viewBox="0 0 600.000000 600.000000" preserveAspectRatio="xMidYMid meet" x="0px" y="0px"><metadata>
Created by potrace 1.14, written by Peter Selinger 2001-2017
</metadata><g transform="translate(0.000000,600.000000) scale(0.100000,-0.100000)" fill="#000000" stroke="none"><path d="M3838 5615 c-187 -95 -375 -147 -668 -185 -47 -6 -89 -15 -93 -19 -16 -16 195 -34 328 -28 157 7 296 34 451 88 63 22 116 39 117 37 1 -1 15 -29 31 -61 87 -175 250 -335 494 -488 192 -120 261 -181 285 -254 23 -70 37 -174 37 -284 0 -100 -41 -540 -64 -682 -8 -46 -12 -86 -11 -87 13 -14 77 164 119 328 94 369 117 630 67 790 -41 132 -114 208 -386 406 -104 75 -214 157 -243 182 -63 54 -129 140 -178 232 -38 73 -63 91 -128 89 -17 0 -87 -28 -158 -64z"></path><path d="M2103 5515 c-61 -17 -101 -33 -373 -153 -113 -50 -233 -98 -265 -107 -34 -9 -119 -19 -198 -22 l-137 -6 -29 -33 c-24 -26 -30 -45 -35 -96 -3 -35 -10 -115 -15 -178 -14 -153 -57 -317 -137 -517 -36 -90 -64 -167 -61 -169 6 -7 68 71 119 151 108 166 180 352 219 556 l21 116 107 1 c219 0 369 44 646 187 220 114 272 131 352 115 77 -16 157 -49 257 -106 92 -53 368 -246 529 -371 59 -45 107 -80 107 -77 0 13 -62 94 -121 158 -86 93 -306 295 -402 368 -229 174 -407 230 -584 183z"></path><path d="M3535 4825 c-63 -14 -160 -53 -152 -61 3 -3 43 0 90 7 101 14 221 0 275 -31 137 -82 247 -251 303 -467 23 -93 24 -194 3 -408 -9 -95 -13 -192 -9 -239 5 -75 5 -78 -12 -65 -89 69 -297 246 -326 278 -61 67 -92 151 -122 325 -4 27 -10 35 -17 28 -7 -7 -9 -56 -6 -139 8 -210 17 -225 330 -553 108 -113 220 -236 250 -274 29 -38 58 -71 64 -73 13 -4 100 71 115 99 8 15 6 36 -10 87 -36 116 -53 264 -61 556 -5 154 -14 302 -19 329 -17 75 -93 246 -146 326 -62 93 -135 168 -215 219 -108 70 -202 86 -335 56z"></path><path d="M1990 4665 c-157 -32 -279 -102 -339 -194 -42 -66 -77 -167 -86 -251 l-6 -55 55 111 c84 171 146 223 306 261 78 18 224 13 345 -12 112 -23 215 -75 400 -204 88 -62 188 -126 222 -142 35 -17 63 -32 63 -33 0 -5 -347 -132 -395 -145 -91 -25 -208 -10 -342 43 -35 13 -63 20 -63 15 0 -30 190 -130 284 -149 79 -16 159 -4 476 75 140 35 293 69 340 75 125 17 132 21 124 72 -4 24 -14 61 -24 83 -16 39 -20 41 -79 52 -72 14 -287 98 -386 153 -38 21 -122 68 -185 104 -146 84 -251 125 -365 142 -111 17 -258 16 -345 -1z"></path><path d="M5205 4058 c14 -51 110 -238 160 -313 76 -114 178 -229 281 -315 49 -41 91 -75 93 -77 2 -1 -15 -31 -37 -65 -114 -176 -166 -377 -177 -688 -9 -245 -21 -294 -92 -371 -61 -65 -147 -126 -274 -193 -127 -67 -539 -251 -619 -276 -19 -6 -11 -8 32 -9 67 -1 268 48 470 114 424 140 592 270 652 501 8 32 26 169 41 304 37 360 54 427 144 575 37 61 42 76 38 112 -2 24 -10 50 -18 59 -7 9 -72 56 -143 104 -162 109 -294 237 -440 423 -59 75 -110 137 -112 137 -3 0 -2 -10 1 -22z"></path><path d="M1287 4030 c-213 -45 -492 -137 -652 -214 -140 -68 -223 -130 -280 -207 -71 -96 -91 -176 -126 -498 -16 -152 -36 -303 -44 -336 -15 -60 -69 -179 -121 -266 -26 -43 -27 -47 -13 -89 13 -41 24 -52 154 -141 161 -111 295 -237 410 -384 137 -174 147 -186 151 -182 7 6 -53 145 -97 227 -84 155 -213 312 -357 432 l-89 75 24 34 c119 168 193 437 193 694 0 136 14 262 35 312 32 75 165 184 337 276 81 43 287 136 493 223 130 55 145 63 110 63 -22 0 -80 -9 -128 -19z"></path><path d="M1951 3846 c-48 -73 -268 -238 -459 -346 -73 -41 -170 -103 -216 -136 -138 -102 -267 -283 -322 -451 -25 -77 -29 -103 -29 -208 0 -111 2 -124 27 -171 39 -74 99 -146 157 -189 29 -20 54 -35 57 -33 2 3 -14 27 -36 54 -52 63 -107 168 -120 230 -24 111 38 287 149 427 114 143 162 179 405 297 122 59 245 124 274 145 l54 37 -6 -29 c-3 -15 -19 -107 -36 -203 -16 -96 -37 -196 -46 -222 -22 -67 -88 -153 -172 -223 -40 -32 -72 -62 -72 -67 0 -24 163 68 234 133 79 72 112 148 207 474 44 154 96 317 115 363 19 45 34 88 34 96 0 16 -78 47 -134 53 -38 4 -43 2 -65 -31z"></path><path d="M3166 3603 c-10 -3 -44 -21 -75 -41 -60 -38 -139 -61 -211 -62 -25 0 -52 -5 -60 -10 -8 -5 -10 -10 -5 -10 6 0 -15 -12 -45 -26 -30 -14 -70 -37 -89 -51 l-34 -26 -51 58 c-57 64 -76 68 -110 22 -16 -22 -21 -48 -27 -140 -6 -110 -16 -147 -60 -234 -10 -20 -16 -39 -11 -42 4 -4 7 -49 7 -102 l0 -97 -64 -10 c-74 -13 -96 -29 -88 -65 11 -40 46 -76 106 -106 59 -30 140 -109 181 -175 13 -22 25 -35 28 -28 2 6 27 -6 57 -27 30 -21 68 -44 85 -51 36 -15 36 -18 8 -97 -28 -76 -18 -93 50 -93 36 0 61 9 113 40 67 40 172 70 245 70 19 0 34 4 34 9 0 6 28 24 63 41 34 18 72 41 83 52 l22 19 43 -51 c72 -85 90 -86 130 -7 17 32 19 50 14 102 -6 52 -3 76 15 132 13 37 30 82 38 98 12 23 15 56 13 142 -3 125 -9 116 82 129 48 6 77 25 77 48 0 30 -50 83 -109 118 -78 45 -121 85 -174 163 -22 32 -42 54 -45 47 -2 -8 -14 -4 -35 12 -18 14 -56 36 -84 51 -29 14 -53 27 -53 28 0 1 9 26 20 55 11 29 20 63 20 77 0 37 -43 53 -104 38z m-82 -209 c9 -3 16 -12 16 -19 0 -8 -20 -87 -45 -177 -25 -90 -44 -174 -43 -188 3 -22 6 -19 36 28 18 30 59 111 90 182 65 144 57 139 140 72 44 -36 175 -203 185 -237 6 -18 -5 -23 -124 -54 -188 -48 -259 -71 -259 -81 0 -17 185 -9 363 15 36 5 37 4 37 -24 0 -17 -5 -54 -11 -83 -13 -63 -98 -268 -114 -274 -6 -3 -75 60 -154 138 -191 190 -199 163 -24 -81 41 -56 77 -109 80 -117 7 -19 -66 -51 -155 -69 -92 -18 -228 -29 -235 -18 -3 5 14 81 38 169 53 194 59 224 48 224 -11 0 -65 -89 -97 -160 -89 -200 -84 -192 -108 -179 -54 29 -106 80 -175 174 -41 54 -72 105 -71 113 2 9 33 22 78 34 184 46 301 81 307 91 6 10 -229 4 -344 -9 -45 -6 -52 -4 -55 12 -8 37 21 150 61 243 65 150 50 151 210 -10 76 -77 143 -139 150 -139 22 0 -34 93 -176 292 l-34 47 38 19 c54 28 114 43 228 57 55 7 101 13 102 14 1 0 8 -2 17 -5z"></path><path d="M4800 3482 c0 -5 18 -32 40 -58 64 -77 113 -185 118 -258 10 -157 -85 -345 -259 -512 -78 -74 -114 -95 -321 -191 -90 -41 -192 -94 -228 -118 -36 -24 -66 -40 -68 -35 -7 18 70 417 88 458 31 70 83 133 165 202 43 36 72 66 66 68 -19 6 -167 -78 -222 -127 -91 -81 -111 -128 -238 -562 -33 -114 -76 -246 -95 -293 l-35 -86 23 -16 c31 -20 83 -34 126 -34 28 0 39 6 55 31 39 61 281 244 435 329 216 119 317 198 405 315 116 155 181 311 192 465 11 167 -52 284 -229 419 -10 8 -18 9 -18 3z"></path><path d="M1708 2610 c-21 -17 -47 -44 -59 -61 l-21 -30 20 -47 c36 -83 79 -424 68 -531 -9 -77 10 -333 29 -406 21 -77 91 -225 144 -303 74 -110 173 -196 283 -247 89 -42 269 -31 373 23 35 17 35 17 -118 17 -146 0 -154 1 -202 27 -136 73 -253 250 -310 468 -22 81 -24 221 -6 395 7 72 12 176 10 232 -3 66 0 99 6 95 23 -14 303 -253 332 -283 57 -61 100 -171 119 -304 14 -101 31 -72 33 56 2 154 -34 255 -130 364 -29 33 -130 141 -225 240 -95 99 -198 213 -229 253 -31 39 -62 72 -68 72 -7 0 -29 -14 -49 -30z"></path><path d="M1187 2082 c-37 -83 -90 -273 -132 -474 -28 -133 -37 -206 -42 -318 -6 -166 4 -235 45 -325 44 -93 125 -171 346 -332 110 -80 228 -170 262 -199 60 -52 141 -159 183 -241 24 -48 52 -70 97 -79 26 -5 60 8 179 65 208 100 330 136 574 171 211 31 210 31 183 41 -12 5 -75 13 -140 18 -130 10 -294 1 -419 -24 -65 -14 -255 -73 -314 -99 -12 -5 -20 4 -35 36 -41 92 -119 196 -224 299 -90 89 -136 124 -267 205 -253 157 -289 195 -319 333 -27 131 -10 493 41 865 9 60 14 111 12 113 -2 2 -16 -23 -30 -55z"></path><path d="M3365 1884 c-357 -88 -608 -146 -675 -154 -46 -7 -88 -14 -93 -17 -14 -8 0 -99 20 -141 16 -33 23 -38 69 -44 99 -14 341 -116 489 -205 228 -138 352 -186 522 -202 192 -19 363 13 501 93 33 20 72 50 87 67 60 72 116 219 114 304 0 37 -1 38 -11 15 -99 -230 -153 -289 -313 -335 -136 -40 -398 -11 -540 59 -38 19 -137 83 -220 142 -82 58 -186 124 -229 145 -79 38 -79 38 -50 49 339 130 387 144 479 144 77 0 103 -5 180 -33 130 -47 136 -48 95 -11 -19 17 -78 52 -130 78 -89 44 -100 46 -185 49 -49 1 -99 0 -110 -3z"></path><path d="M5078 1528 c-158 -196 -259 -426 -307 -698 l-17 -94 -85 3 c-204 6 -407 -51 -669 -190 -199 -105 -252 -123 -331 -116 -64 6 -178 51 -292 116 -79 46 -402 274 -541 384 -77 61 -86 65 -70 37 37 -63 145 -180 289 -313 291 -269 463 -375 641 -393 101 -11 192 16 469 138 328 144 347 150 523 157 l144 6 32 35 32 36 12 164 c17 231 54 377 166 649 26 62 45 115 43 118 -3 2 -20 -15 -39 -39z"></path></g></svg>